<svg width="1660" height="1472" viewBox="0 0 1660 1472" fill="none" xmlns="http://www.w3.org/2000/svg">
<g clip-path="url(#clip0_1067_3180)">
<rect width="1660" height="1472" fill="white"/>
<g clip-path="url(#clip1_1067_3180)">
<rect width="1655" height="2318" transform="translate(5 0.222168)" fill="white"/>
<mask id="mask0_1067_3180" style="mask-type:alpha" maskUnits="userSpaceOnUse" x="5" y="0" width="1700" height="861">
<rect x="5.56006" y="0.222168" width="1698.88" height="860.079" fill="url(#paint0_linear_1067_3180)"/>
</mask>
<g mask="url(#mask0_1067_3180)">
<g opacity="0.5">
<g opacity="0.1" clip-path="url(#clip2_1067_3180)">
<path d="M0.396427 753.611C3.43888 753.611 5.91372 753.228 7.82093 752.461C9.77356 751.694 11.2948 750.702 12.3846 749.484C13.4745 748.266 14.2237 746.891 14.6324 745.357C15.0411 743.824 15.2454 742.268 15.2454 740.689C15.2454 738.885 14.9957 737.261 14.4962 735.818C14.0421 734.374 13.2247 733.156 12.044 732.164C10.9088 731.172 9.38757 730.405 7.48036 729.864C5.57315 729.323 3.16643 729.052 0.260201 729.052H-15.8149V753.611H0.396427ZM-15.8149 689.405V713.762H-3.82668C-1.28373 713.762 1.00946 713.581 3.05291 713.22C5.09635 712.859 6.82191 712.228 8.22962 711.326C9.68273 710.424 10.7726 709.184 11.4991 707.605C12.2711 706.026 12.6571 704.042 12.6571 701.651C12.6571 699.306 12.3619 697.366 11.7716 695.833C11.1813 694.254 10.2731 692.991 9.047 692.044C7.82093 691.097 6.2543 690.42 4.34708 690.014C2.48528 689.608 0.260201 689.405 -2.32816 689.405H-15.8149ZM-2.32816 672.288C4.52872 672.288 10.3639 672.92 15.1773 674.182C19.9908 675.445 23.9187 677.227 26.9612 679.527C30.0036 681.828 32.206 684.624 33.5683 687.917C34.976 691.209 35.6799 694.885 35.6799 698.945C35.6799 701.155 35.362 703.297 34.7262 705.372C34.0905 707.402 33.0915 709.319 31.7292 711.123C30.3669 712.882 28.6186 714.506 26.4844 715.994C24.3501 717.483 21.7845 718.768 18.7874 719.851C25.3264 721.429 30.1626 723.978 33.2958 727.496C36.4291 731.014 37.9958 735.57 37.9958 741.163C37.9958 745.357 37.1784 749.259 35.5436 752.867C33.9089 756.476 31.5022 759.633 28.3235 762.339C25.1902 765 21.3077 767.098 16.6758 768.631C12.044 770.12 6.7538 770.864 0.805119 770.864H-38.8376V672.288H-2.32816Z" fill="#00A39D"/>
<path d="M108.719 692.394C108.037 693.475 107.311 694.286 106.539 694.827C105.812 695.367 104.859 695.637 103.678 695.637C102.634 695.637 101.498 695.322 100.272 694.691C99.0916 694.016 97.7293 693.272 96.1854 692.461C94.6869 691.65 92.9613 690.929 91.0087 690.299C89.0561 689.623 86.831 689.285 84.3335 689.285C80.0195 689.285 76.7954 690.209 74.6612 692.056C72.5723 693.858 71.5279 696.313 71.5279 699.422C71.5279 701.404 72.1636 703.049 73.4351 704.355C74.7066 705.662 76.364 706.788 78.4075 707.734C80.4963 708.68 82.8576 709.559 85.4914 710.37C88.1706 711.136 90.8952 712.014 93.6652 713.005C96.4352 713.951 99.137 715.078 101.771 716.384C104.45 717.691 106.811 719.358 108.855 721.385C110.944 723.413 112.624 725.891 113.895 728.819C115.167 731.702 115.802 735.194 115.802 739.294C115.802 743.844 115.008 748.102 113.418 752.066C111.829 756.031 109.513 759.5 106.471 762.473C103.474 765.402 99.7501 767.722 95.2999 769.434C90.8952 771.101 85.8774 771.935 80.2466 771.935C77.1587 771.935 74.0027 771.619 70.7786 770.988C67.5999 770.358 64.5121 769.479 61.515 768.353C58.518 767.181 55.7026 765.807 53.0688 764.23C50.435 762.654 48.1418 760.897 46.1892 758.959L53.0007 748.282C53.5456 747.516 54.2495 746.885 55.1122 746.39C56.0204 745.849 56.9967 745.579 58.0412 745.579C59.4035 745.579 60.7658 746.007 62.1281 746.863C63.5358 747.719 65.1024 748.665 66.828 749.701C68.599 750.737 70.6197 751.683 72.8902 752.539C75.1607 753.395 77.8398 753.823 80.9277 753.823C85.1054 753.823 88.3522 752.922 90.6681 751.12C92.984 749.273 94.142 746.367 94.142 742.402C94.142 740.105 93.5062 738.235 92.2348 736.793C90.9633 735.352 89.2831 734.158 87.1943 733.212C85.1508 732.265 82.8122 731.432 80.1785 730.711C77.5447 729.99 74.8428 729.202 72.0728 728.346C69.3028 727.445 66.6009 726.364 63.9672 725.102C61.3334 723.796 58.9721 722.106 56.8832 720.034C54.8398 717.916 53.1823 715.303 51.9109 712.194C50.6394 709.041 50.0036 705.166 50.0036 700.571C50.0036 696.876 50.7529 693.272 52.2514 689.758C53.7499 686.244 55.9523 683.113 58.8585 680.365C61.7648 677.616 65.3294 675.431 69.5526 673.809C73.7757 672.142 78.6118 671.309 84.061 671.309C87.1034 671.309 90.0551 671.557 92.9159 672.052C95.8221 672.503 98.5694 673.201 101.158 674.147C103.746 675.048 106.153 676.152 108.378 677.459C110.648 678.72 112.669 680.162 114.44 681.784L108.719 692.394Z" fill="#00A39D"/>
<path fill-rule="evenodd" clip-rule="evenodd" d="M191.006 668.211C173.328 666.519 167.113 676.082 163.645 680.812C159.222 661.902 151.744 663.393 143.742 658.629C155.307 652.034 158.541 641.781 158.223 634.188C169.55 642.347 177.449 641.472 187.23 638.826C182.363 653.096 185.436 657.124 191.006 668.211Z" fill="#F8AD3C"/>
<path d="M154.034 770.905H130.093V670.098C145.075 672.092 154.058 684.266 154.034 697.152V770.905Z" fill="#00A39D"/>
</g>
<g opacity="0.1" clip-path="url(#clip3_1067_3180)">
<path d="M937.748 818.565C940.791 818.565 943.266 818.182 945.173 817.415C947.125 816.648 948.647 815.656 949.736 814.438C950.826 813.22 951.576 811.845 951.984 810.311C952.393 808.778 952.597 807.221 952.597 805.643C952.597 803.839 952.347 802.215 951.848 800.772C951.394 799.328 950.577 798.11 949.396 797.118C948.261 796.126 946.739 795.359 944.832 794.818C942.925 794.277 940.518 794.006 937.612 794.006H921.537V818.565H937.748ZM921.537 754.359V778.715H933.525C936.068 778.715 938.361 778.535 940.405 778.174C942.448 777.813 944.174 777.182 945.581 776.28C947.035 775.378 948.124 774.137 948.851 772.559C949.623 770.98 950.009 768.995 950.009 766.605C950.009 764.259 949.714 762.32 949.123 760.786C948.533 759.208 947.625 757.945 946.399 756.998C945.173 756.05 943.606 755.374 941.699 754.968C939.837 754.562 937.612 754.359 935.024 754.359H921.537ZM935.024 737.242C941.881 737.242 947.716 737.873 952.529 739.136C957.343 740.399 961.271 742.181 964.313 744.481C967.355 746.782 969.558 749.578 970.92 752.871C972.328 756.163 973.032 759.839 973.032 763.899C973.032 766.109 972.714 768.251 972.078 770.326C971.442 772.356 970.443 774.273 969.081 776.077C967.719 777.836 965.97 779.46 963.836 780.948C961.702 782.437 959.136 783.722 956.139 784.805C962.678 786.383 967.514 788.932 970.648 792.45C973.781 795.968 975.348 800.523 975.348 806.116C975.348 810.311 974.53 814.213 972.895 817.821C971.261 821.429 968.854 824.587 965.675 827.293C962.542 829.954 958.659 832.051 954.028 833.585C949.396 835.073 944.106 835.818 938.157 835.818H898.514V737.242H935.024Z" fill="#00A39D"/>
<path d="M1046.07 757.348C1045.39 758.429 1044.66 759.24 1043.89 759.78C1043.16 760.321 1042.21 760.591 1041.03 760.591C1039.99 760.591 1038.85 760.276 1037.62 759.645C1036.44 758.969 1035.08 758.226 1033.54 757.415C1032.04 756.604 1030.31 755.883 1028.36 755.253C1026.41 754.577 1024.18 754.239 1021.69 754.239C1017.37 754.239 1014.15 755.162 1012.01 757.01C1009.92 758.812 1008.88 761.267 1008.88 764.376C1008.88 766.358 1009.52 768.002 1010.79 769.309C1012.06 770.616 1013.72 771.742 1015.76 772.688C1017.85 773.634 1020.21 774.513 1022.84 775.324C1025.52 776.09 1028.25 776.968 1031.02 777.959C1033.79 778.905 1036.49 780.032 1039.12 781.338C1041.8 782.645 1044.16 784.312 1046.21 786.339C1048.3 788.366 1049.98 790.844 1051.25 793.773C1052.52 796.656 1053.15 800.148 1053.15 804.248C1053.15 808.798 1052.36 813.055 1050.77 817.02C1049.18 820.985 1046.86 824.454 1043.82 827.427C1040.83 830.356 1037.1 832.676 1032.65 834.388C1028.25 836.055 1023.23 836.888 1017.6 836.888C1014.51 836.888 1011.35 836.573 1008.13 835.942C1004.95 835.312 1001.86 834.433 998.867 833.307C995.87 832.135 993.054 830.761 990.421 829.184C987.787 827.608 985.494 825.85 983.541 823.913L990.352 813.236C990.897 812.47 991.601 811.839 992.464 811.343C993.372 810.803 994.349 810.532 995.393 810.532C996.755 810.532 998.118 810.961 999.48 811.817C1000.89 812.673 1002.45 813.619 1004.18 814.655C1005.95 815.691 1007.97 816.637 1010.24 817.493C1012.51 818.349 1015.19 818.777 1018.28 818.777C1022.46 818.777 1025.7 817.876 1028.02 816.074C1030.34 814.227 1031.49 811.321 1031.49 807.356C1031.49 805.059 1030.86 803.189 1029.59 801.747C1028.32 800.305 1026.63 799.112 1024.55 798.165C1022.5 797.219 1020.16 796.386 1017.53 795.665C1014.9 794.944 1012.19 794.156 1009.42 793.3C1006.65 792.399 1003.95 791.317 1001.32 790.056C998.685 788.749 996.324 787.06 994.235 784.987C992.192 782.87 990.534 780.257 989.263 777.148C987.991 773.995 987.355 770.12 987.355 765.525C987.355 761.83 988.105 758.226 989.603 754.712C991.102 751.198 993.304 748.067 996.21 745.318C999.117 742.57 1002.68 740.385 1006.9 738.763C1011.13 737.096 1015.96 736.263 1021.41 736.263C1024.46 736.263 1027.41 736.51 1030.27 737.006C1033.17 737.457 1035.92 738.155 1038.51 739.101C1041.1 740.002 1043.5 741.106 1045.73 742.412C1048 743.674 1050.02 745.116 1051.79 746.738L1046.07 757.348Z" fill="#00A39D"/>
<path fill-rule="evenodd" clip-rule="evenodd" d="M1128.36 733.165C1110.68 731.473 1104.46 741.036 1101 745.766C1096.57 726.856 1089.1 728.347 1081.09 723.583C1092.66 716.988 1095.89 706.735 1095.57 699.141C1106.9 707.301 1114.8 706.426 1124.58 703.78C1119.71 718.05 1122.79 722.078 1128.36 733.165Z" fill="#F8AD3C"/>
<path d="M1091.39 835.859H1067.44V735.052C1082.43 737.046 1091.41 749.22 1091.39 762.106V835.859Z" fill="#00A39D"/>
</g>
<g opacity="0.1" clip-path="url(#clip4_1067_3180)">
<path d="M507.709 696.496C510.751 696.496 513.226 696.113 515.133 695.346C517.086 694.579 518.607 693.587 519.697 692.369C520.787 691.151 521.536 689.776 521.945 688.242C522.353 686.709 522.558 685.153 522.558 683.574C522.558 681.77 522.308 680.146 521.808 678.703C521.354 677.259 520.537 676.042 519.356 675.049C518.221 674.057 516.7 673.29 514.793 672.749C512.885 672.208 510.479 671.937 507.572 671.937H491.497V696.496H507.709ZM491.497 632.29V656.647H503.486C506.029 656.647 508.322 656.466 510.365 656.105C512.409 655.744 514.134 655.113 515.542 654.211C516.995 653.309 518.085 652.069 518.811 650.49C519.583 648.911 519.969 646.927 519.969 644.536C519.969 642.191 519.674 640.251 519.084 638.718C518.494 637.139 517.585 635.876 516.359 634.929C515.133 633.982 513.567 633.305 511.659 632.899C509.798 632.493 507.572 632.29 504.984 632.29H491.497ZM504.984 615.173C511.841 615.173 517.676 615.805 522.49 617.067C527.303 618.33 531.231 620.112 534.273 622.412C537.316 624.713 539.518 627.509 540.881 630.802C542.288 634.094 542.992 637.77 542.992 641.83C542.992 644.04 542.674 646.182 542.038 648.257C541.403 650.287 540.404 652.204 539.041 654.008C537.679 655.767 535.931 657.391 533.797 658.879C531.662 660.368 529.097 661.653 526.1 662.736C532.639 664.314 537.475 666.863 540.608 670.381C543.741 673.899 545.308 678.455 545.308 684.048C545.308 688.242 544.491 692.144 542.856 695.752C541.221 699.361 538.814 702.518 535.636 705.224C532.502 707.885 528.62 709.983 523.988 711.516C519.356 713.005 514.066 713.749 508.117 713.749H468.475V615.173H504.984Z" fill="#00A39D"/>
<path d="M616.031 635.279C615.35 636.36 614.623 637.171 613.851 637.712C613.125 638.252 612.171 638.523 610.99 638.523C609.946 638.523 608.811 638.207 607.585 637.577C606.404 636.901 605.042 636.157 603.498 635.346C601.999 634.535 600.274 633.815 598.321 633.184C596.368 632.508 594.143 632.17 591.646 632.17C587.332 632.17 584.108 633.094 581.973 634.941C579.885 636.743 578.84 639.198 578.84 642.307C578.84 644.289 579.476 645.934 580.747 647.24C582.019 648.547 583.676 649.673 585.72 650.619C587.809 651.566 590.17 652.444 592.804 653.255C595.483 654.021 598.207 654.899 600.977 655.891C603.747 656.837 606.449 657.963 609.083 659.27C611.762 660.576 614.124 662.243 616.167 664.271C618.256 666.298 619.936 668.776 621.207 671.704C622.479 674.588 623.115 678.079 623.115 682.179C623.115 686.729 622.32 690.987 620.731 694.951C619.141 698.916 616.825 702.385 613.783 705.359C610.786 708.287 607.062 710.607 602.612 712.319C598.207 713.986 593.19 714.82 587.559 714.82C584.471 714.82 581.315 714.504 578.091 713.874C574.912 713.243 571.824 712.364 568.827 711.238C565.83 710.067 563.015 708.693 560.381 707.116C557.747 705.539 555.454 703.782 553.501 701.845L560.313 691.167C560.858 690.401 561.562 689.77 562.424 689.275C563.333 688.734 564.309 688.464 565.353 688.464C566.716 688.464 568.078 688.892 569.44 689.748C570.848 690.604 572.415 691.55 574.14 692.586C575.911 693.622 577.932 694.569 580.202 695.425C582.473 696.281 585.152 696.709 588.24 696.709C592.418 696.709 595.664 695.808 597.98 694.005C600.296 692.158 601.454 689.252 601.454 685.288C601.454 682.99 600.818 681.12 599.547 679.679C598.276 678.237 596.595 677.043 594.507 676.097C592.463 675.151 590.124 674.317 587.491 673.596C584.857 672.876 582.155 672.087 579.385 671.231C576.615 670.33 573.913 669.249 571.279 667.987C568.646 666.681 566.284 664.991 564.195 662.919C562.152 660.801 560.495 658.188 559.223 655.08C557.952 651.926 557.316 648.051 557.316 643.456C557.316 639.762 558.065 636.157 559.564 632.643C561.062 629.129 563.265 625.998 566.171 623.25C569.077 620.502 572.642 618.316 576.865 616.695C581.088 615.028 585.924 614.194 591.373 614.194C594.416 614.194 597.367 614.442 600.228 614.937C603.134 615.388 605.882 616.086 608.47 617.032C611.058 617.934 613.465 619.037 615.69 620.344C617.961 621.605 619.981 623.047 621.752 624.669L616.031 635.279Z" fill="#00A39D"/>
<path fill-rule="evenodd" clip-rule="evenodd" d="M698.318 611.096C680.641 609.404 674.425 618.967 670.957 623.698C666.535 604.787 659.056 606.278 651.054 601.514C662.619 594.92 665.853 584.666 665.535 577.073C676.863 585.233 684.761 584.357 694.543 581.711C689.675 595.981 692.748 600.009 698.318 611.096Z" fill="#F8AD3C"/>
<path d="M661.347 713.79H637.405V612.983C652.387 614.977 661.37 627.152 661.347 640.037V713.79Z" fill="#00A39D"/>
</g>
<g opacity="0.1" clip-path="url(#clip5_1067_3180)">
<path d="M789.922 649.461C792.965 649.461 795.439 649.078 797.347 648.311C799.299 647.544 800.82 646.552 801.91 645.334C803 644.116 803.749 642.741 804.158 641.207C804.567 639.674 804.771 638.117 804.771 636.539C804.771 634.735 804.521 633.111 804.022 631.668C803.568 630.224 802.75 629.006 801.57 628.014C800.434 627.022 798.913 626.255 797.006 625.714C795.099 625.173 792.692 624.902 789.786 624.902H773.711V649.461H789.922ZM773.711 585.255V609.611H785.699C788.242 609.611 790.535 609.431 792.579 609.07C794.622 608.709 796.348 608.078 797.755 607.176C799.208 606.274 800.298 605.033 801.025 603.455C801.797 601.876 802.183 599.891 802.183 597.501C802.183 595.155 801.888 593.216 801.297 591.682C800.707 590.104 799.799 588.841 798.573 587.894C797.347 586.946 795.78 586.27 793.873 585.864C792.011 585.458 789.786 585.255 787.197 585.255H773.711ZM787.197 568.138C794.054 568.138 799.89 568.769 804.703 570.032C809.516 571.295 813.444 573.077 816.487 575.377C819.529 577.678 821.732 580.474 823.094 583.767C824.502 587.059 825.205 590.735 825.205 594.795C825.205 597.005 824.888 599.147 824.252 601.222C823.616 603.252 822.617 605.169 821.255 606.973C819.893 608.732 818.144 610.356 816.01 611.844C813.876 613.333 811.31 614.618 808.313 615.701C814.852 617.279 819.688 619.828 822.821 623.346C825.955 626.864 827.521 631.419 827.521 637.012C827.521 641.207 826.704 645.109 825.069 648.717C823.435 652.325 821.028 655.483 817.849 658.189C814.716 660.85 810.833 662.947 806.201 664.481C801.57 665.969 796.279 666.714 790.331 666.714H750.688V568.138H787.197Z" fill="#00A39D"/>
<path d="M898.244 588.244C897.563 589.325 896.836 590.136 896.064 590.676C895.338 591.217 894.384 591.487 893.204 591.487C892.159 591.487 891.024 591.172 889.798 590.541C888.617 589.865 887.255 589.122 885.711 588.311C884.213 587.5 882.487 586.779 880.534 586.149C878.582 585.473 876.357 585.135 873.859 585.135C869.545 585.135 866.321 586.058 864.187 587.906C862.098 589.708 861.054 592.163 861.054 595.272C861.054 597.254 861.689 598.898 862.961 600.205C864.232 601.512 865.89 602.638 867.933 603.584C870.022 604.53 872.383 605.409 875.017 606.22C877.696 606.985 880.421 607.864 883.191 608.855C885.961 609.801 888.663 610.928 891.296 612.234C893.976 613.541 896.337 615.208 898.38 617.235C900.469 619.262 902.149 621.74 903.421 624.669C904.692 627.552 905.328 631.044 905.328 635.144C905.328 639.694 904.533 643.951 902.944 647.916C901.355 651.881 899.039 655.35 895.996 658.323C892.999 661.252 889.276 663.572 884.826 665.284C880.421 666.951 875.403 667.784 869.772 667.784C866.684 667.784 863.528 667.469 860.304 666.838C857.126 666.208 854.038 665.329 851.041 664.203C848.044 663.031 845.228 661.657 842.594 660.08C839.961 658.504 837.667 656.746 835.715 654.809L842.526 644.132C843.071 643.366 843.775 642.735 844.638 642.239C845.546 641.699 846.522 641.428 847.567 641.428C848.929 641.428 850.291 641.857 851.654 642.713C853.061 643.569 854.628 644.515 856.354 645.551C858.125 646.587 860.145 647.533 862.416 648.389C864.686 649.245 867.365 649.673 870.453 649.673C874.631 649.673 877.878 648.772 880.194 646.97C882.51 645.123 883.668 642.217 883.668 638.252C883.668 635.955 883.032 634.085 881.76 632.643C880.489 631.201 878.809 630.008 876.72 629.061C874.676 628.115 872.338 627.282 869.704 626.561C867.07 625.84 864.368 625.052 861.598 624.196C858.828 623.295 856.127 622.213 853.493 620.952C850.859 619.645 848.498 617.956 846.409 615.883C844.365 613.766 842.708 611.153 841.436 608.044C840.165 604.891 839.529 601.016 839.529 596.421C839.529 592.726 840.279 589.122 841.777 585.608C843.276 582.094 845.478 578.963 848.384 576.214C851.29 573.466 854.855 571.281 859.078 569.659C863.301 567.992 868.137 567.159 873.587 567.159C876.629 567.159 879.581 567.406 882.442 567.902C885.348 568.353 888.095 569.051 890.683 569.997C893.272 570.898 895.678 572.002 897.904 573.308C900.174 574.57 902.195 576.012 903.966 577.634L898.244 588.244Z" fill="#00A39D"/>
<path fill-rule="evenodd" clip-rule="evenodd" d="M980.531 564.061C962.854 562.369 956.638 571.932 953.171 576.662C948.748 557.752 941.269 559.243 933.268 554.479C944.832 547.884 948.067 537.631 947.749 530.037C959.076 538.197 966.974 537.322 976.756 534.676C971.889 548.946 974.962 552.974 980.531 564.061Z" fill="#F8AD3C"/>
<path d="M943.56 666.755H919.619V565.948C934.6 567.942 943.584 580.116 943.56 593.002V666.755Z" fill="#00A39D"/>
</g>
<g opacity="0.1" clip-path="url(#clip6_1067_3180)">
<path d="M1556.4 651.206C1559.4 650.702 1561.77 649.914 1563.53 648.841C1565.33 647.762 1566.66 646.531 1567.53 645.149C1568.41 643.768 1568.92 642.287 1569.07 640.707C1569.22 639.127 1569.16 637.558 1568.9 636.001C1568.6 634.222 1568.08 632.662 1567.35 631.322C1566.66 629.974 1565.66 628.908 1564.33 628.125C1563.04 627.335 1561.42 626.831 1559.45 626.613C1557.48 626.396 1555.06 626.528 1552.19 627.009L1536.34 629.674L1540.41 653.894L1556.4 651.206ZM1529.77 590.576L1533.8 614.595L1545.63 612.608C1548.13 612.186 1550.37 611.628 1552.32 610.934C1554.28 610.239 1555.87 609.33 1557.11 608.207C1558.4 607.077 1559.26 605.673 1559.72 603.996C1560.22 602.311 1560.27 600.29 1559.87 597.932C1559.49 595.619 1558.87 593.756 1558.04 592.341C1557.19 590.882 1556.09 589.787 1554.72 589.057C1553.36 588.326 1551.7 587.918 1549.75 587.834C1547.85 587.742 1545.62 587.911 1543.07 588.34L1529.77 590.576ZM1540.23 571.46C1546.99 570.323 1552.85 569.979 1557.81 570.426C1562.76 570.874 1566.93 571.98 1570.31 573.744C1573.69 575.508 1576.33 577.901 1578.22 580.922C1580.15 583.936 1581.46 587.444 1582.13 591.447C1582.5 593.627 1582.54 595.792 1582.25 597.944C1581.96 600.051 1581.3 602.107 1580.25 604.112C1579.2 606.073 1577.75 607.964 1575.89 609.785C1574.03 611.607 1571.71 613.3 1568.94 614.864C1575.65 615.337 1580.84 617.049 1584.51 619.999C1588.18 622.949 1590.48 627.182 1591.41 632.697C1592.11 636.834 1591.95 640.817 1590.93 644.646C1589.92 648.476 1588.07 651.988 1585.38 655.184C1582.73 658.328 1579.25 661.04 1574.94 663.32C1570.62 665.555 1565.53 667.166 1559.66 668.152L1520.56 674.724L1504.22 577.511L1540.23 571.46Z" fill="#00A39D"/>
<path d="M1653.07 572.88C1652.58 574.059 1652 574.98 1651.33 575.641C1650.7 576.294 1649.8 576.719 1648.64 576.915C1647.61 577.088 1646.44 576.965 1645.12 576.546C1643.85 576.075 1642.38 575.568 1640.72 575.024C1639.11 574.473 1637.29 574.048 1635.26 573.75C1633.22 573.407 1630.97 573.443 1628.51 573.857C1624.25 574.572 1621.23 576.017 1619.43 578.192C1617.67 580.316 1617.05 582.91 1617.56 585.976C1617.89 587.931 1618.79 589.447 1620.26 590.525C1621.73 591.602 1623.55 592.439 1625.72 593.033C1627.94 593.62 1630.41 594.095 1633.15 594.458C1635.92 594.769 1638.75 595.184 1641.64 595.702C1644.53 596.176 1647.38 596.839 1650.2 597.691C1653.06 598.535 1655.66 599.788 1658.01 601.448C1660.41 603.101 1662.48 605.266 1664.22 607.943C1665.95 610.576 1667.15 613.914 1667.83 617.957C1668.59 622.445 1668.51 626.775 1667.6 630.948C1666.69 635.121 1664.98 638.926 1662.47 642.363C1660 645.748 1656.71 648.653 1652.61 651.079C1648.54 653.453 1643.73 655.107 1638.18 656.04C1635.13 656.552 1631.97 656.764 1628.69 656.677C1625.45 656.582 1622.26 656.227 1619.11 655.613C1615.96 654.955 1612.96 654.066 1610.1 652.948C1607.24 651.829 1604.69 650.477 1602.44 648.89L1607.39 637.231C1607.8 636.385 1608.39 635.647 1609.16 635.015C1609.96 634.331 1610.88 633.903 1611.91 633.73C1613.26 633.504 1614.67 633.7 1616.16 634.319C1617.69 634.929 1619.39 635.603 1621.26 636.338C1623.18 637.067 1625.33 637.665 1627.71 638.133C1630.09 638.6 1632.8 638.578 1635.85 638.067C1639.97 637.374 1643.02 635.947 1645.01 633.786C1646.98 631.581 1647.64 628.523 1646.99 624.613C1646.61 622.347 1645.67 620.609 1644.18 619.398C1642.68 618.187 1640.83 617.288 1638.61 616.701C1636.44 616.107 1634 615.673 1631.28 615.398C1628.56 615.124 1625.77 614.794 1622.89 614.409C1620.01 613.98 1617.17 613.362 1614.36 612.554C1611.55 611.702 1608.94 610.428 1606.54 608.73C1604.17 606.981 1602.1 604.678 1600.33 601.823C1598.56 598.924 1597.29 595.209 1596.53 590.677C1595.91 587.033 1596.05 583.355 1596.95 579.641C1597.84 575.927 1599.5 572.474 1601.91 569.282C1604.32 566.09 1607.47 563.344 1611.37 561.045C1615.26 558.701 1619.89 557.078 1625.26 556.174C1628.26 555.67 1631.21 555.425 1634.12 555.44C1637.06 555.402 1639.88 555.635 1642.59 556.139C1645.29 556.599 1647.85 557.289 1650.26 558.208C1652.71 559.076 1654.94 560.163 1656.96 561.469L1653.07 572.88Z" fill="#00A39D"/>
</g>
<g opacity="0.1" clip-path="url(#clip7_1067_3180)">
<path d="M1030.1 634.571C1033.09 635.147 1035.59 635.24 1037.61 634.848C1039.67 634.465 1041.35 633.778 1042.65 632.789C1043.95 631.799 1044.95 630.59 1045.64 629.162C1046.33 627.734 1046.83 626.244 1047.13 624.694C1047.47 622.923 1047.53 621.281 1047.31 619.769C1047.14 618.266 1046.57 616.915 1045.6 615.717C1044.67 614.528 1043.32 613.487 1041.55 612.595C1039.78 611.702 1037.47 610.981 1034.62 610.43L1018.83 607.387L1014.18 631.502L1030.1 634.571ZM1026.34 568.457L1021.73 592.373L1033.5 594.643C1035.99 595.124 1038.28 595.381 1040.36 595.414C1042.43 595.446 1044.24 595.153 1045.8 594.534C1047.39 593.923 1048.7 592.912 1049.71 591.499C1050.77 590.095 1051.52 588.22 1051.98 585.872C1052.42 583.569 1052.5 581.609 1052.21 579.992C1051.93 578.33 1051.27 576.918 1050.25 575.755C1049.23 574.593 1047.82 573.632 1046.02 572.873C1044.27 572.121 1042.12 571.501 1039.58 571.011L1026.34 568.457ZM1042.82 554.203C1049.55 555.502 1055.16 557.226 1059.65 559.378C1064.14 561.529 1067.66 564.023 1070.21 566.857C1072.76 569.692 1074.4 572.855 1075.11 576.346C1075.87 579.846 1075.86 583.588 1075.09 587.574C1074.68 589.745 1073.96 591.788 1072.94 593.705C1071.93 595.577 1070.59 597.271 1068.91 598.784C1067.24 600.254 1065.21 601.517 1062.84 602.574C1060.46 603.632 1057.7 604.408 1054.55 604.904C1060.67 607.692 1064.94 611.11 1067.35 615.158C1069.76 619.205 1070.43 623.975 1069.38 629.467C1068.58 633.586 1067.04 637.262 1064.75 640.496C1062.46 643.729 1059.5 646.374 1055.87 648.429C1052.29 650.449 1048.08 651.773 1043.24 652.402C1038.41 652.986 1033.07 652.715 1027.23 651.589L988.308 644.083L1006.97 547.29L1042.82 554.203Z" fill="#00A39D"/>
<path d="M1148.05 594.972C1147.18 595.904 1146.31 596.563 1145.45 596.948C1144.64 597.341 1143.65 597.426 1142.49 597.202C1141.46 597.005 1140.41 596.48 1139.32 595.628C1138.29 594.741 1137.1 593.753 1135.73 592.665C1134.42 591.585 1132.86 590.55 1131.06 589.561C1129.27 588.528 1127.15 587.775 1124.7 587.302C1120.46 586.485 1117.12 586.781 1114.68 588.191C1112.28 589.565 1110.79 591.778 1110.2 594.831C1109.83 596.777 1110.14 598.512 1111.14 600.036C1112.14 601.56 1113.56 602.979 1115.39 604.295C1117.26 605.62 1119.41 606.93 1121.84 608.225C1124.33 609.484 1126.84 610.862 1129.37 612.36C1131.91 613.814 1134.35 615.431 1136.69 617.213C1139.07 619.003 1141.07 621.087 1142.7 623.465C1144.36 625.851 1145.54 628.602 1146.24 631.718C1146.94 634.79 1146.9 638.339 1146.13 642.365C1145.27 646.833 1143.68 650.863 1141.37 654.455C1139.06 658.047 1136.13 661.014 1132.58 663.358C1129.08 665.666 1124.98 667.239 1120.29 668.078C1115.65 668.88 1110.56 668.749 1105.03 667.683C1102 667.098 1098.96 666.191 1095.92 664.961C1092.92 663.74 1090.05 662.292 1087.32 660.619C1084.6 658.901 1082.1 657.019 1079.81 654.972C1077.52 652.925 1075.6 650.765 1074.05 648.493L1082.76 639.299C1083.44 638.65 1084.25 638.164 1085.19 637.841C1086.19 637.482 1087.2 637.401 1088.22 637.599C1089.56 637.857 1090.82 638.535 1091.99 639.634C1093.21 640.741 1094.57 641.966 1096.07 643.31C1097.61 644.663 1099.42 645.975 1101.48 647.245C1103.55 648.516 1106.1 649.443 1109.13 650.028C1113.24 650.819 1116.59 650.549 1119.21 649.218C1121.83 647.843 1123.52 645.209 1124.27 641.316C1124.71 639.059 1124.44 637.103 1123.46 635.447C1122.48 633.791 1121.06 632.3 1119.19 630.976C1117.36 629.66 1115.22 628.398 1112.77 627.192C1110.32 625.985 1107.82 624.7 1105.26 623.335C1102.71 621.925 1100.26 620.352 1097.92 618.615C1095.58 616.833 1093.58 614.727 1091.92 612.297C1090.32 609.831 1089.18 606.951 1088.52 603.658C1087.87 600.32 1087.98 596.396 1088.85 591.883C1089.55 588.256 1090.97 584.859 1093.11 581.692C1095.24 578.525 1098 575.867 1101.37 573.719C1104.75 571.571 1108.66 570.1 1113.11 569.307C1117.58 568.47 1122.48 568.568 1127.83 569.599C1130.82 570.175 1133.67 570.978 1136.39 572.006C1139.16 572.999 1141.72 574.204 1144.08 575.624C1146.45 576.998 1148.61 578.538 1150.55 580.242C1152.54 581.911 1154.25 583.709 1155.68 585.637L1148.05 594.972Z" fill="#00A39D"/>
<path fill-rule="evenodd" clip-rule="evenodd" d="M1233.43 586.807C1216.39 581.799 1208.48 590.012 1204.18 594C1203.42 574.594 1195.79 574.642 1188.84 568.45C1201.44 564.164 1206.56 554.708 1207.68 547.192C1217.26 557.349 1225.18 557.985 1235.29 557.239C1227.81 570.329 1230.06 574.866 1233.43 586.807Z" fill="#F8AD3C"/>
<path d="M1177.68 680.643L1154.17 676.11L1173.26 577.126C1187.6 581.921 1194.11 595.576 1191.65 608.224L1177.68 680.643Z" fill="#00A39D"/>
</g>
<g opacity="0.1" clip-path="url(#clip8_1067_3180)">
<path d="M1297.75 645.77C1300.74 646.346 1303.24 646.438 1305.26 646.047C1307.32 645.664 1309.01 644.977 1310.31 643.988C1311.61 642.998 1312.6 641.789 1313.3 640.361C1313.99 638.933 1314.48 637.443 1314.78 635.893C1315.12 634.122 1315.18 632.48 1314.97 630.968C1314.8 629.465 1314.22 628.114 1313.25 626.916C1312.32 625.727 1310.98 624.686 1309.21 623.794C1307.44 622.901 1305.12 622.18 1302.27 621.629L1286.49 618.586L1281.84 642.701L1297.75 645.77ZM1293.99 579.656L1289.38 603.572L1301.15 605.842C1303.65 606.323 1305.94 606.58 1308.01 606.613C1310.08 606.645 1311.9 606.352 1313.45 605.733C1315.05 605.122 1316.35 604.111 1317.37 602.698C1318.42 601.294 1319.18 599.419 1319.63 597.071C1320.08 594.768 1320.15 592.808 1319.86 591.19C1319.58 589.529 1318.93 588.117 1317.91 586.954C1316.88 585.792 1315.47 584.831 1313.67 584.071C1311.92 583.32 1309.78 582.7 1307.24 582.21L1293.99 579.656ZM1310.48 565.402C1317.21 566.701 1322.82 568.425 1327.31 570.577C1331.79 572.728 1335.31 575.222 1337.87 578.056C1340.42 580.891 1342.05 584.054 1342.76 587.545C1343.52 591.045 1343.52 594.787 1342.75 598.773C1342.33 600.944 1341.61 602.987 1340.6 604.904C1339.59 606.776 1338.24 608.47 1336.56 609.983C1334.89 611.453 1332.87 612.716 1330.49 613.773C1328.11 614.831 1325.35 615.607 1322.2 616.103C1328.33 618.891 1332.59 622.309 1335 626.357C1337.41 630.404 1338.09 635.174 1337.03 640.666C1336.24 644.785 1334.69 648.461 1332.41 651.695C1330.12 654.928 1327.16 657.573 1323.52 659.628C1319.94 661.648 1315.73 662.972 1310.89 663.601C1306.06 664.185 1300.73 663.914 1294.89 662.788L1255.96 655.282L1274.63 558.489L1310.48 565.402Z" fill="#00A39D"/>
<path d="M1415.71 606.17C1414.83 607.103 1413.97 607.762 1413.11 608.146C1412.29 608.54 1411.3 608.625 1410.14 608.401C1409.12 608.203 1408.06 607.679 1406.98 606.827C1405.95 605.94 1404.75 604.952 1403.39 603.864C1402.07 602.783 1400.51 601.749 1398.71 600.76C1396.93 599.727 1394.8 598.974 1392.35 598.501C1388.12 597.684 1384.78 597.98 1382.33 599.39C1379.94 600.764 1378.45 602.977 1377.86 606.03C1377.48 607.976 1377.8 609.711 1378.8 611.235C1379.8 612.758 1381.21 614.178 1383.04 615.494C1384.91 616.819 1387.06 618.128 1389.5 619.423C1391.98 620.683 1394.49 622.061 1397.02 623.559C1399.56 625.012 1402 626.63 1404.34 628.411C1406.73 630.202 1408.73 632.286 1410.35 634.663C1412.02 637.049 1413.2 639.801 1413.89 642.917C1414.6 645.989 1414.56 649.538 1413.78 653.563C1412.92 658.031 1411.33 662.061 1409.02 665.653C1406.71 669.245 1403.78 672.213 1400.23 674.557C1396.73 676.865 1392.64 678.438 1387.94 679.276C1383.3 680.079 1378.22 679.947 1372.69 678.881C1369.66 678.297 1366.62 677.389 1363.57 676.16C1360.57 674.938 1357.7 673.491 1354.98 671.818C1352.25 670.1 1349.75 668.218 1347.46 666.171C1345.17 664.124 1343.26 661.964 1341.71 659.692L1350.42 650.497C1351.1 649.849 1351.91 649.363 1352.85 649.039C1353.84 648.68 1354.85 648.6 1355.88 648.798C1357.21 649.056 1358.47 649.734 1359.65 650.832C1360.87 651.939 1362.23 653.165 1363.72 654.509C1365.27 655.862 1367.07 657.174 1369.14 658.444C1371.21 659.714 1373.76 660.642 1376.79 661.227C1380.89 662.018 1384.25 661.748 1386.86 660.417C1389.49 659.041 1391.18 656.407 1391.93 652.514C1392.36 650.258 1392.09 648.302 1391.12 646.646C1390.14 644.989 1388.72 643.499 1386.84 642.174C1385.02 640.858 1382.88 639.597 1380.43 638.391C1377.98 637.184 1375.48 635.898 1372.92 634.533C1370.37 633.124 1367.92 631.551 1365.57 629.814C1363.23 628.032 1361.24 625.926 1359.58 623.495C1357.97 621.029 1356.84 618.15 1356.18 614.857C1355.53 611.519 1355.64 607.594 1356.51 603.082C1357.21 599.455 1358.62 596.057 1360.76 592.89C1362.9 589.724 1365.65 587.066 1369.03 584.918C1372.4 582.77 1376.32 581.299 1380.77 580.506C1385.23 579.669 1390.14 579.766 1395.49 580.798C1398.48 581.374 1401.33 582.176 1404.04 583.205C1406.81 584.197 1409.38 585.403 1411.74 586.822C1414.11 588.197 1416.26 589.737 1418.2 591.441C1420.19 593.109 1421.9 594.908 1423.33 596.836L1415.71 606.17Z" fill="#00A39D"/>
<path fill-rule="evenodd" clip-rule="evenodd" d="M1501.09 598.006C1484.05 592.998 1476.13 601.211 1471.83 605.199C1471.07 585.793 1463.45 585.841 1456.49 579.649C1469.09 575.363 1474.21 565.907 1475.34 558.391C1484.92 568.548 1492.84 569.184 1502.94 568.438C1495.46 581.528 1497.72 586.065 1501.09 598.006Z" fill="#F8AD3C"/>
<path d="M1445.34 691.842L1421.83 687.308L1440.92 588.325C1455.25 593.12 1461.77 606.775 1459.3 619.423L1445.34 691.842Z" fill="#00A39D"/>
</g>
<g opacity="0.1" clip-path="url(#clip9_1067_3180)">
<path d="M432.676 885.759C435.718 885.759 438.193 885.375 440.1 884.609C442.053 883.842 443.574 882.85 444.664 881.632C445.754 880.414 446.503 879.038 446.912 877.505C447.32 875.971 447.525 874.415 447.525 872.836C447.525 871.032 447.275 869.408 446.775 867.965C446.321 866.522 445.504 865.304 444.323 864.312C443.188 863.319 441.667 862.553 439.76 862.011C437.852 861.47 435.446 861.2 432.539 861.2H416.464V885.759H432.676ZM416.464 821.553V845.909H428.453C430.996 845.909 433.289 845.729 435.332 845.368C437.376 845.007 439.101 844.375 440.509 843.473C441.962 842.571 443.052 841.331 443.778 839.752C444.55 838.174 444.936 836.189 444.936 833.798C444.936 831.453 444.641 829.514 444.051 827.98C443.461 826.401 442.552 825.138 441.326 824.191C440.1 823.244 438.534 822.567 436.626 822.162C434.765 821.756 432.539 821.553 429.951 821.553H416.464ZM429.951 804.436C436.808 804.436 442.643 805.067 447.457 806.33C452.27 807.593 456.198 809.374 459.24 811.675C462.283 813.975 464.485 816.772 465.848 820.064C467.255 823.357 467.959 827.033 467.959 831.092C467.959 833.302 467.641 835.445 467.006 837.52C466.37 839.549 465.371 841.466 464.008 843.27C462.646 845.03 460.898 846.653 458.764 848.142C456.629 849.63 454.064 850.916 451.067 851.998C457.606 853.577 462.442 856.125 465.575 859.643C468.708 863.162 470.275 867.717 470.275 873.31C470.275 877.505 469.458 881.406 467.823 885.015C466.188 888.623 463.781 891.78 460.603 894.487C457.469 897.148 453.587 899.245 448.955 900.779C444.323 902.267 439.033 903.011 433.084 903.011H393.442V804.436H429.951Z" fill="#00A39D"/>
<path d="M540.998 824.541C540.317 825.623 539.59 826.434 538.818 826.974C538.092 827.515 537.138 827.785 535.957 827.785C534.913 827.785 533.778 827.47 532.552 826.839C531.371 826.163 530.009 825.42 528.465 824.609C526.966 823.798 525.241 823.077 523.288 822.446C521.335 821.771 519.11 821.433 516.613 821.433C512.299 821.433 509.075 822.356 506.94 824.203C504.852 826.006 503.807 828.461 503.807 831.57C503.807 833.552 504.443 835.196 505.714 836.503C506.986 837.809 508.643 838.936 510.687 839.882C512.776 840.828 515.137 841.707 517.771 842.518C520.45 843.283 523.174 844.162 525.944 845.153C528.714 846.099 531.416 847.226 534.05 848.532C536.729 849.839 539.091 851.506 541.134 853.533C543.223 855.56 544.903 858.038 546.175 860.967C547.446 863.85 548.082 867.342 548.082 871.441C548.082 875.992 547.287 880.249 545.698 884.214C544.108 888.179 541.792 891.648 538.75 894.621C535.753 897.55 532.029 899.87 527.579 901.582C523.174 903.249 518.157 904.082 512.526 904.082C509.438 904.082 506.282 903.767 503.058 903.136C499.879 902.505 496.791 901.627 493.794 900.501C490.797 899.329 487.982 897.955 485.348 896.378C482.714 894.801 480.421 893.044 478.469 891.107L485.28 880.429C485.825 879.664 486.529 879.033 487.392 878.537C488.3 877.997 489.276 877.726 490.32 877.726C491.683 877.726 493.045 878.154 494.407 879.01C495.815 879.866 497.382 880.812 499.107 881.849C500.878 882.885 502.899 883.831 505.169 884.687C507.44 885.543 510.119 885.971 513.207 885.971C517.385 885.971 520.632 885.07 522.947 883.268C525.263 881.421 526.421 878.515 526.421 874.55C526.421 872.252 525.786 870.383 524.514 868.941C523.243 867.499 521.562 866.305 519.474 865.359C517.43 864.413 515.092 863.58 512.458 862.859C509.824 862.138 507.122 861.35 504.352 860.494C501.582 859.592 498.88 858.511 496.246 857.25C493.613 855.943 491.251 854.254 489.163 852.181C487.119 850.064 485.462 847.451 484.19 844.342C482.919 841.188 482.283 837.314 482.283 832.718C482.283 829.024 483.032 825.42 484.531 821.906C486.029 818.392 488.232 815.26 491.138 812.512C494.044 809.764 497.609 807.579 501.832 805.957C506.055 804.29 510.891 803.457 516.34 803.457C519.383 803.457 522.334 803.704 525.195 804.2C528.101 804.65 530.849 805.349 533.437 806.295C536.025 807.196 538.432 808.3 540.657 809.606C542.928 810.868 544.948 812.309 546.719 813.931L540.998 824.541Z" fill="#00A39D"/>
<path fill-rule="evenodd" clip-rule="evenodd" d="M623.285 800.358C605.608 798.666 599.392 808.23 595.924 812.96C591.502 794.049 584.023 795.54 576.021 790.777C587.586 784.182 590.82 773.929 590.502 766.335C601.83 774.495 609.728 773.619 619.51 770.973C614.642 785.243 617.716 789.271 623.285 800.358Z" fill="#F8AD3C"/>
<path d="M586.314 903.052H562.372V802.245C577.354 804.239 586.337 816.414 586.314 829.299V903.052Z" fill="#00A39D"/>
</g>
<g opacity="0.1" clip-path="url(#clip10_1067_3180)">
<path fill-rule="evenodd" clip-rule="evenodd" d="M1516.21 893.876C1498.84 890.154 1491.56 898.935 1487.57 903.233C1485.36 883.938 1477.76 884.555 1470.36 878.899C1482.61 873.684 1487.01 863.873 1487.57 856.294C1497.88 865.707 1505.83 865.75 1515.85 864.252C1509.37 877.864 1511.95 882.22 1516.21 893.876Z" fill="#F8AD3C"/>
</g>
<g opacity="0.1" clip-path="url(#clip11_1067_3180)">
<path d="M1680.97 752.864C1683.99 753.216 1686.5 753.121 1688.48 752.579C1690.51 752.043 1692.13 751.234 1693.36 750.15C1694.58 749.066 1695.48 747.786 1696.07 746.31C1696.65 744.834 1697.03 743.312 1697.21 741.744C1697.42 739.952 1697.36 738.31 1697.03 736.819C1696.75 735.332 1696.08 734.028 1695.02 732.906C1694.01 731.789 1692.58 730.852 1690.75 730.094C1688.92 729.336 1686.56 728.789 1683.67 728.454L1667.71 726.597L1664.87 750.992L1680.97 752.864ZM1672.29 687.215L1669.47 711.408L1681.38 712.793C1683.91 713.087 1686.21 713.173 1688.28 713.05C1690.35 712.928 1692.14 712.5 1693.64 711.767C1695.19 711.039 1696.41 709.933 1697.32 708.448C1698.26 706.969 1698.88 705.043 1699.15 702.668C1699.42 700.338 1699.36 698.378 1698.95 696.786C1698.54 695.15 1697.79 693.791 1696.68 692.708C1695.57 691.626 1694.09 690.773 1692.24 690.149C1690.44 689.531 1688.25 689.072 1685.68 688.773L1672.29 687.215ZM1687.66 671.771C1694.47 672.563 1700.19 673.864 1704.83 675.675C1709.47 677.485 1713.16 679.709 1715.92 682.345C1718.67 684.981 1720.54 688.014 1721.51 691.442C1722.53 694.875 1722.8 698.608 1722.33 702.64C1722.08 704.835 1721.52 706.926 1720.64 708.914C1719.78 710.857 1718.57 712.645 1717 714.28C1715.45 715.87 1713.52 717.281 1711.23 718.513C1708.94 719.745 1706.24 720.725 1703.14 721.454C1709.45 723.778 1713.96 726.868 1716.67 730.724C1719.37 734.581 1720.4 739.287 1719.76 744.842C1719.27 749.009 1718.01 752.79 1715.97 756.185C1713.93 759.581 1711.17 762.439 1707.7 764.76C1704.28 767.041 1700.19 768.676 1695.41 769.664C1690.63 770.608 1685.29 770.736 1679.38 770.048L1640.01 765.469L1651.4 667.553L1687.66 671.771Z" fill="#00A39D"/>
</g>
<g opacity="0.1" clip-path="url(#clip12_1067_3180)">
<path d="M1447 831.303C1449.94 830.537 1452.24 829.542 1453.89 828.32C1455.59 827.086 1456.81 825.742 1457.56 824.289C1458.31 822.836 1458.69 821.316 1458.7 819.729C1458.71 818.142 1458.51 816.585 1458.11 815.057C1457.66 813.311 1457.01 811.802 1456.16 810.531C1455.36 809.249 1454.26 808.276 1452.87 807.613C1451.52 806.939 1449.85 806.58 1447.87 806.537C1445.89 806.493 1443.49 806.838 1440.68 807.57L1425.12 811.619L1431.31 835.386L1447 831.303ZM1415.14 773.25L1421.27 796.821L1432.87 793.802C1435.34 793.161 1437.51 792.409 1439.4 791.545C1441.28 790.681 1442.79 789.635 1443.93 788.408C1445.11 787.169 1445.85 785.694 1446.16 783.983C1446.5 782.261 1446.38 780.243 1445.78 777.93C1445.19 775.66 1444.41 773.857 1443.45 772.522C1442.48 771.143 1441.29 770.149 1439.86 769.541C1438.44 768.934 1436.75 768.674 1434.8 768.761C1432.9 768.837 1430.69 769.201 1428.19 769.853L1415.14 773.25ZM1423.88 753.288C1430.51 751.561 1436.32 750.702 1441.3 750.712C1446.27 750.722 1450.52 751.456 1454.05 752.916C1457.57 754.376 1460.41 756.528 1462.55 759.371C1464.75 762.203 1466.35 765.583 1467.37 769.511C1467.93 771.65 1468.16 773.804 1468.07 775.972C1467.97 778.096 1467.48 780.203 1466.62 782.292C1465.74 784.338 1464.46 786.349 1462.77 788.327C1461.08 790.305 1458.92 792.196 1456.29 793.998C1463.02 793.879 1468.34 795.127 1472.26 797.742C1476.18 800.358 1478.84 804.372 1480.25 809.785C1481.31 813.844 1481.5 817.826 1480.83 821.729C1480.15 825.633 1478.62 829.295 1476.22 832.715C1473.86 836.079 1470.63 839.087 1466.54 841.738C1462.43 844.345 1457.5 846.398 1451.74 847.896L1413.38 857.882L1388.55 762.484L1423.88 753.288Z" fill="#00A39D"/>
<path d="M1536.41 744.774C1536.02 745.992 1535.52 746.96 1534.91 747.677C1534.34 748.384 1533.49 748.885 1532.35 749.183C1531.34 749.446 1530.16 749.427 1528.81 749.125C1527.5 748.768 1525.99 748.392 1524.3 747.996C1522.64 747.589 1520.79 747.326 1518.74 747.207C1516.68 747.045 1514.44 747.279 1512.03 747.908C1507.85 748.994 1504.96 750.7 1503.36 753.026C1501.8 755.296 1501.4 757.935 1502.19 760.943C1502.69 762.862 1503.72 764.293 1505.28 765.237C1506.84 766.181 1508.72 766.854 1510.94 767.255C1513.2 767.644 1515.71 767.9 1518.46 768.021C1521.24 768.087 1524.1 768.251 1527.03 768.513C1529.95 768.731 1532.85 769.14 1535.73 769.741C1538.65 770.331 1541.35 771.349 1543.84 772.796C1546.38 774.232 1548.63 776.207 1550.59 778.721C1552.55 781.191 1554.04 784.41 1555.08 788.377C1556.22 792.781 1556.53 797.101 1555.99 801.339C1555.45 805.576 1554.08 809.516 1551.89 813.16C1549.72 816.749 1546.7 819.933 1542.83 822.71C1538.99 825.433 1534.34 827.504 1528.89 828.922C1525.9 829.7 1522.77 830.189 1519.49 830.391C1516.25 830.581 1513.04 830.509 1509.86 830.174C1506.66 829.795 1503.59 829.175 1500.65 828.312C1497.7 827.449 1495.04 826.327 1492.66 824.944L1496.56 812.895C1496.9 812.016 1497.42 811.229 1498.13 810.532C1498.87 809.78 1499.75 809.272 1500.76 809.009C1502.08 808.666 1503.51 808.737 1505.04 809.222C1506.62 809.696 1508.37 810.217 1510.3 810.785C1512.28 811.342 1514.47 811.748 1516.89 812.005C1519.3 812.261 1522 812.001 1524.99 811.223C1529.03 810.171 1531.95 808.481 1533.73 806.154C1535.51 803.783 1535.9 800.679 1534.9 796.842C1534.32 794.618 1533.23 792.969 1531.64 791.894C1530.05 790.819 1528.12 790.087 1525.86 789.697C1523.64 789.297 1521.17 789.079 1518.44 789.045C1515.71 789.011 1512.9 788.928 1510 788.798C1507.09 788.623 1504.21 788.257 1501.34 787.7C1498.46 787.099 1495.75 786.059 1493.21 784.579C1490.7 783.045 1488.43 780.934 1486.42 778.245C1484.4 775.514 1482.8 771.924 1481.65 767.477C1480.72 763.902 1480.53 760.225 1481.1 756.447C1481.66 752.668 1483.01 749.083 1485.13 745.692C1487.25 742.3 1490.15 739.288 1493.82 736.654C1497.49 733.977 1501.96 731.953 1507.24 730.58C1510.18 729.814 1513.1 729.31 1515.99 729.069C1518.92 728.773 1521.75 728.757 1524.5 729.02C1527.23 729.24 1529.83 729.702 1532.32 730.406C1534.83 731.055 1537.15 731.941 1539.27 733.065L1536.41 744.774Z" fill="#00A39D"/>
<path fill-rule="evenodd" clip-rule="evenodd" d="M1609.95 700.644C1592.42 703.459 1588.81 714.28 1586.65 719.731C1577.6 702.544 1570.74 705.871 1561.8 703.276C1571.33 693.981 1571.88 683.244 1569.66 675.975C1582.67 681.018 1590.1 678.182 1598.9 673.157C1597.78 688.193 1601.77 691.317 1609.95 700.644Z" fill="#F8AD3C"/>
<path d="M1600.04 809.339L1576.87 815.37L1551.48 717.813C1566.48 715.969 1578.24 725.488 1581.46 737.964L1600.04 809.339Z" fill="#00A39D"/>
</g>
<g opacity="0.1" clip-path="url(#clip13_1067_3180)">
<path d="M1595.95 946.652C1598.89 945.886 1601.19 944.891 1602.84 943.669C1604.54 942.435 1605.76 941.091 1606.51 939.638C1607.26 938.185 1607.63 936.665 1607.64 935.078C1607.65 933.491 1607.46 931.934 1607.06 930.406C1606.61 928.66 1605.96 927.151 1605.11 925.88C1604.31 924.598 1603.21 923.625 1601.81 922.962C1600.47 922.288 1598.8 921.929 1596.82 921.886C1594.84 921.842 1592.44 922.187 1589.63 922.919L1574.07 926.968L1580.26 950.735L1595.95 946.652ZM1564.08 888.6L1570.22 912.171L1581.82 909.151C1584.28 908.51 1586.46 907.758 1588.34 906.894C1590.23 906.03 1591.74 904.984 1592.87 903.757C1594.05 902.518 1594.8 901.043 1595.1 899.332C1595.45 897.61 1595.32 895.592 1594.72 893.279C1594.13 891.009 1593.36 889.206 1592.4 887.871C1591.43 886.492 1590.23 885.498 1588.81 884.891C1587.38 884.283 1585.7 884.023 1583.75 884.11C1581.85 884.186 1579.64 884.55 1577.14 885.202L1564.08 888.6ZM1572.82 868.637C1579.46 866.91 1585.27 866.051 1590.24 866.061C1595.22 866.071 1599.47 866.806 1602.99 868.265C1606.52 869.725 1609.35 871.877 1611.5 874.72C1613.69 877.552 1615.3 880.932 1616.32 884.861C1616.88 886.999 1617.11 889.153 1617.02 891.321C1616.91 893.445 1616.43 895.552 1615.57 897.641C1614.69 899.687 1613.41 901.698 1611.72 903.676C1610.03 905.655 1607.87 907.545 1605.24 909.347C1611.97 909.228 1617.29 910.476 1621.21 913.092C1625.12 915.707 1627.79 919.721 1629.2 925.134C1630.25 929.193 1630.44 933.175 1629.77 937.079C1629.1 940.982 1627.56 944.644 1625.17 948.064C1622.81 951.428 1619.58 954.436 1615.48 957.087C1611.38 959.694 1606.44 961.747 1600.69 963.245L1562.32 973.231L1537.49 877.833L1572.82 868.637Z" fill="#00A39D"/>
<path d="M1685.35 860.123C1684.97 861.341 1684.47 862.309 1683.86 863.027C1683.29 863.733 1682.44 864.235 1681.29 864.532C1680.28 864.795 1679.1 864.776 1677.76 864.474C1676.45 864.118 1674.94 863.741 1673.24 863.345C1671.59 862.938 1669.74 862.675 1667.69 862.557C1665.63 862.394 1663.39 862.628 1660.97 863.257C1656.8 864.344 1653.91 866.049 1652.31 868.375C1650.74 870.645 1650.35 873.284 1651.13 876.293C1651.63 878.211 1652.66 879.642 1654.22 880.586C1655.78 881.53 1657.67 882.203 1659.89 882.604C1662.14 882.993 1664.65 883.249 1667.4 883.37C1670.19 883.437 1673.05 883.6 1675.98 883.862C1678.9 884.08 1681.8 884.489 1684.67 885.09C1687.6 885.68 1690.3 886.698 1692.79 888.146C1695.32 889.581 1697.57 891.556 1699.54 894.07C1701.5 896.54 1702.99 899.759 1704.02 903.727C1705.17 908.13 1705.47 912.451 1704.93 916.688C1704.39 920.925 1703.03 924.865 1700.83 928.509C1698.67 932.098 1695.65 935.282 1691.77 938.059C1687.93 940.782 1683.29 942.853 1677.84 944.271C1674.85 945.049 1671.71 945.539 1668.44 945.74C1665.2 945.931 1661.99 945.858 1658.81 945.523C1655.61 945.144 1652.54 944.524 1649.59 943.661C1646.65 942.799 1643.99 941.676 1641.61 940.293L1645.51 928.244C1645.85 927.365 1646.37 926.578 1647.08 925.881C1647.82 925.129 1648.7 924.621 1649.71 924.358C1651.03 924.015 1652.45 924.086 1653.99 924.571C1655.56 925.045 1657.32 925.566 1659.25 926.134C1661.22 926.691 1663.42 927.098 1665.83 927.354C1668.24 927.611 1670.95 927.35 1673.93 926.572C1677.98 925.52 1680.89 923.83 1682.68 921.503C1684.45 919.132 1684.84 916.028 1683.84 912.191C1683.27 909.967 1682.18 908.318 1680.59 907.243C1678.99 906.168 1677.07 905.436 1674.81 905.047C1672.59 904.646 1670.12 904.428 1667.39 904.394C1664.66 904.36 1661.84 904.277 1658.95 904.147C1656.04 903.972 1653.15 903.607 1650.29 903.049C1647.41 902.448 1644.7 901.408 1642.15 899.929C1639.64 898.394 1637.38 896.283 1635.37 893.595C1633.34 890.863 1631.75 887.273 1630.59 882.826C1629.66 879.251 1629.48 875.574 1630.04 871.796C1630.61 868.018 1631.95 864.433 1634.07 861.041C1636.19 857.649 1639.09 854.637 1642.77 852.003C1646.44 849.326 1650.91 847.302 1656.18 845.929C1659.13 845.163 1662.04 844.659 1664.94 844.418C1667.86 844.122 1670.7 844.106 1673.44 844.369C1676.17 844.589 1678.78 845.051 1681.26 845.755C1683.78 846.404 1686.1 847.29 1688.22 848.414L1685.35 860.123Z" fill="#00A39D"/>
</g>
<g opacity="0.1" clip-path="url(#clip14_1067_3180)">
<path d="M151.96 901.543C154.972 901.97 157.476 901.937 159.472 901.445C161.513 900.96 163.158 900.191 164.408 899.138C165.658 898.085 166.593 896.828 167.212 895.367C167.832 893.906 168.252 892.393 168.474 890.83C168.727 889.044 168.707 887.401 168.415 885.902C168.168 884.409 167.529 883.089 166.499 881.941C165.514 880.799 164.116 879.827 162.303 879.024C160.491 878.22 158.146 877.615 155.268 877.207L139.352 874.953L135.908 899.27L151.96 901.543ZM144.911 835.698L141.496 859.814L153.365 861.495C155.883 861.851 158.179 861.994 160.253 861.924C162.327 861.853 164.124 861.47 165.644 860.774C167.209 860.084 168.462 859.009 169.403 857.548C170.389 856.093 171.049 854.182 171.384 851.815C171.713 849.493 171.693 847.531 171.324 845.93C170.96 844.284 170.238 842.906 169.157 841.797C168.076 840.687 166.62 839.797 164.788 839.128C163.002 838.465 160.827 837.952 158.264 837.589L144.911 835.698ZM160.664 820.641C167.453 821.603 173.142 823.046 177.731 824.971C182.32 826.897 185.959 829.211 188.649 831.916C191.339 834.62 193.128 837.697 194.015 841.149C194.947 844.606 195.128 848.344 194.559 852.364C194.249 854.552 193.634 856.629 192.714 858.594C191.8 860.514 190.542 862.272 188.94 863.868C187.345 865.418 185.386 866.781 183.064 867.955C180.742 869.13 178.022 870.043 174.902 870.695C181.156 873.174 185.587 876.376 188.196 880.299C190.805 884.221 191.717 888.951 190.933 894.489C190.345 898.642 188.988 902.391 186.864 905.734C184.739 909.078 181.914 911.867 178.387 914.1C174.912 916.296 170.773 917.828 165.972 918.697C161.177 919.521 155.835 919.517 149.945 918.683L110.694 913.124L124.515 815.522L160.664 820.641Z" fill="#00A39D"/>
<path d="M267.795 856.118C266.969 857.093 266.136 857.795 265.296 858.222C264.5 858.655 263.518 858.789 262.349 858.623C261.315 858.477 260.235 858.006 259.11 857.209C258.036 856.374 256.791 855.447 255.376 854.428C254.006 853.415 252.399 852.459 250.554 851.561C248.715 850.618 246.559 849.972 244.087 849.621C239.815 849.017 236.494 849.479 234.121 851.009C231.8 852.5 230.422 854.785 229.986 857.863C229.708 859.825 230.107 861.543 231.183 863.015C232.259 864.487 233.742 865.834 235.632 867.057C237.568 868.287 239.783 869.488 242.277 870.66C244.822 871.794 247.397 873.046 250 874.416C252.61 875.741 255.128 877.235 257.552 878.898C260.022 880.567 262.126 882.549 263.865 884.843C265.649 887.143 266.965 889.832 267.813 892.91C268.668 895.943 268.808 899.489 268.233 903.548C267.595 908.054 266.211 912.158 264.082 915.86C261.952 919.563 259.173 922.673 255.743 925.191C252.365 927.67 248.353 929.445 243.707 930.516C239.112 931.549 234.027 931.671 228.452 930.882C225.394 930.449 222.314 929.694 219.21 928.617C216.151 927.547 213.217 926.244 210.407 924.709C207.604 923.129 205.009 921.374 202.623 919.443C200.236 917.512 198.212 915.451 196.55 913.259L204.791 903.642C205.438 902.96 206.224 902.434 207.147 902.065C208.122 901.657 209.127 901.526 210.161 901.672C211.51 901.863 212.799 902.478 214.028 903.517C215.301 904.562 216.72 905.718 218.283 906.986C219.891 908.26 221.759 909.48 223.887 910.646C226.015 911.812 228.608 912.612 231.666 913.045C235.802 913.63 239.143 913.194 241.689 911.734C244.241 910.23 245.795 907.515 246.351 903.589C246.673 901.314 246.305 899.374 245.249 897.768C244.192 896.163 242.696 894.745 240.76 893.515C238.87 892.292 236.671 891.139 234.164 890.056C231.658 888.973 229.093 887.813 226.47 886.577C223.854 885.297 221.33 883.847 218.9 882.229C216.475 880.566 214.374 878.562 212.596 876.217C210.87 873.834 209.595 871.015 208.772 867.759C207.955 864.458 207.869 860.532 208.514 855.982C209.032 852.324 210.279 848.861 212.255 845.591C214.232 842.322 216.851 839.531 220.114 837.217C223.377 834.904 227.213 833.24 231.622 832.226C236.037 831.168 240.942 831.021 246.337 831.785C249.35 832.211 252.237 832.87 255 833.762C257.815 834.616 260.437 835.692 262.867 836.992C265.304 838.247 267.532 839.677 269.552 841.283C271.623 842.85 273.422 844.561 274.948 846.415L267.795 856.118Z" fill="#00A39D"/>
<path fill-rule="evenodd" clip-rule="evenodd" d="M352.66 843.712C335.394 839.558 327.899 848.155 323.803 852.353C322.075 833.009 314.461 833.437 307.207 827.598C319.582 822.69 324.222 812.991 324.972 805.428C335.043 815.095 342.986 815.336 353.042 814.088C346.222 827.534 348.7 831.953 352.66 843.712Z" fill="#F8AD3C"/>
<path d="M301.655 940.208L277.95 936.851L292.084 837.04C306.639 841.115 313.826 854.428 311.996 867.183L301.655 940.208Z" fill="#00A39D"/>
</g>
<g opacity="0.1" clip-path="url(#clip15_1067_3180)">
<path d="M262.179 771.256C265.097 770.395 267.362 769.326 268.974 768.051C270.63 766.763 271.808 765.38 272.508 763.904C273.209 762.427 273.538 760.896 273.496 759.309C273.454 757.723 273.209 756.172 272.762 754.658C272.251 752.928 271.552 751.441 270.665 750.198C269.82 748.943 268.692 748.006 267.278 747.389C265.909 746.758 264.233 746.454 262.25 746.474C260.268 746.495 257.883 746.917 255.096 747.74L239.678 752.291L246.631 775.845L262.179 771.256ZM228.454 714.266L235.349 737.626L246.847 734.232C249.286 733.512 251.434 732.69 253.292 731.765C255.15 730.841 256.626 729.746 257.721 728.483C258.859 727.206 259.553 725.708 259.803 723.988C260.096 722.256 259.905 720.243 259.228 717.95C258.564 715.701 257.732 713.924 256.731 712.62C255.718 711.274 254.49 710.319 253.046 709.758C251.602 709.197 249.908 708.991 247.963 709.142C246.063 709.28 243.871 709.715 241.389 710.448L228.454 714.266ZM236.543 694.031C243.119 692.09 248.895 691.043 253.869 690.892C258.843 690.74 263.114 691.337 266.684 692.682C270.253 694.027 273.157 696.085 275.395 698.858C277.678 701.617 279.393 704.944 280.543 708.837C281.168 710.957 281.47 713.101 281.448 715.271C281.413 717.398 280.997 719.519 280.201 721.635C279.393 723.708 278.176 725.76 276.55 727.792C274.925 729.824 272.828 731.783 270.26 733.67C276.978 733.333 282.338 734.408 286.339 736.895C290.34 739.382 293.132 743.308 294.716 748.672C295.903 752.695 296.224 756.668 295.678 760.592C295.131 764.515 293.717 768.225 291.434 771.72C289.183 775.16 286.053 778.27 282.045 781.052C278.024 783.791 273.161 786.003 267.455 787.687L229.434 798.91L201.527 704.367L236.543 694.031Z" fill="#00A39D"/>
<path d="M348.738 681.876C348.391 683.106 347.924 684.09 347.337 684.827C346.793 685.551 345.955 686.08 344.823 686.414C343.821 686.71 342.643 686.729 341.288 686.471C339.965 686.157 338.448 685.83 336.737 685.489C335.07 685.136 333.211 684.933 331.16 684.881C329.096 684.785 326.866 685.091 324.471 685.798C320.334 687.02 317.503 688.818 315.979 691.194C314.486 693.514 314.179 696.164 315.059 699.146C315.62 701.047 316.696 702.444 318.285 703.337C319.874 704.23 321.783 704.842 324.01 705.17C326.282 705.486 328.795 705.661 331.551 705.693C334.337 705.669 337.199 705.74 340.136 705.906C343.061 706.03 345.971 706.345 348.867 706.852C351.806 707.347 354.543 708.277 357.077 709.643C359.654 710.996 361.967 712.897 364.016 715.346C366.051 717.751 367.65 720.92 368.81 724.852C370.098 729.216 370.542 733.525 370.14 737.777C369.738 742.029 368.499 746.012 366.423 749.725C364.377 753.383 361.463 756.662 357.679 759.564C353.927 762.41 349.35 764.63 343.95 766.224C340.988 767.098 337.872 767.689 334.601 767.997C331.374 768.292 328.164 768.323 324.971 768.092C321.764 767.817 318.675 767.296 315.703 766.529C312.73 765.762 310.034 764.726 307.612 763.421L311.122 751.252C311.428 750.363 311.925 749.559 312.612 748.839C313.33 748.064 314.19 747.528 315.191 747.232C316.498 746.847 317.926 746.872 319.475 747.307C321.067 747.729 322.837 748.193 324.786 748.699C326.778 749.191 328.983 749.526 331.403 749.704C333.823 749.883 336.514 749.535 339.476 748.661C343.482 747.478 346.341 745.694 348.052 743.31C349.75 740.883 350.038 737.768 348.916 733.966C348.265 731.762 347.126 730.149 345.499 729.126C343.871 728.103 341.922 727.434 339.651 727.118C337.423 726.789 334.944 726.652 332.214 726.706C329.484 726.76 326.669 726.769 323.77 726.732C320.858 726.652 317.961 726.38 315.078 725.916C312.182 725.408 309.439 724.457 306.849 723.06C304.29 721.608 301.96 719.571 299.861 716.95C297.748 714.285 296.042 710.749 294.741 706.341C293.695 702.798 293.393 699.129 293.835 695.335C294.278 691.54 295.504 687.913 297.513 684.455C299.522 680.996 302.322 677.891 305.914 675.14C309.492 672.346 313.894 670.177 319.121 668.635C322.038 667.773 324.94 667.175 327.824 666.841C330.738 666.45 333.571 666.342 336.321 666.517C339.059 666.648 341.68 667.026 344.184 667.649C346.718 668.216 349.065 669.026 351.222 670.081L348.738 681.876Z" fill="#00A39D"/>
<path fill-rule="evenodd" clip-rule="evenodd" d="M420.813 635.387C403.38 638.769 400.126 649.7 398.139 655.219C388.544 638.334 381.793 641.881 372.771 639.578C381.995 629.978 382.194 619.229 379.739 612.036C392.914 616.655 400.241 613.579 408.873 608.273C408.245 623.337 412.333 626.33 420.813 635.387Z" fill="#F8AD3C"/>
<path d="M414.428 744.346L391.466 751.124L362.927 654.441C377.86 652.112 389.923 661.246 393.548 673.611L414.428 744.346Z" fill="#00A39D"/>
</g>
<g opacity="0.1" clip-path="url(#clip16_1067_3180)">
<path d="M1199.53 836.21C1202.45 835.348 1204.71 834.28 1206.33 833.005C1207.98 831.717 1209.16 830.334 1209.86 828.858C1210.56 827.381 1210.89 825.85 1210.85 824.263C1210.81 822.677 1210.56 821.126 1210.11 819.612C1209.6 817.882 1208.9 816.395 1208.02 815.152C1207.17 813.897 1206.04 812.96 1204.63 812.342C1203.26 811.712 1201.58 811.407 1199.6 811.428C1197.62 811.449 1195.23 811.871 1192.45 812.694L1177.03 817.245L1183.98 840.799L1199.53 836.21ZM1165.81 779.22L1172.7 802.58L1184.2 799.186C1186.64 798.466 1188.79 797.644 1190.64 796.719C1192.5 795.794 1193.98 794.7 1195.07 793.437C1196.21 792.16 1196.9 790.662 1197.15 788.942C1197.45 787.209 1197.26 785.197 1196.58 782.904C1195.92 780.655 1195.08 778.878 1194.08 777.574C1193.07 776.227 1191.84 775.273 1190.4 774.712C1188.95 774.151 1187.26 773.945 1185.32 774.096C1183.41 774.234 1181.22 774.669 1178.74 775.402L1165.81 779.22ZM1173.89 758.985C1180.47 757.044 1186.25 755.997 1191.22 755.846C1196.19 755.694 1200.47 756.291 1204.04 757.636C1207.6 758.981 1210.51 761.039 1212.75 763.812C1215.03 766.571 1216.75 769.897 1217.89 773.791C1218.52 775.91 1218.82 778.055 1218.8 780.225C1218.76 782.352 1218.35 784.473 1217.55 786.589C1216.74 788.662 1215.53 790.714 1213.9 792.746C1212.28 794.778 1210.18 796.737 1207.61 798.624C1214.33 798.286 1219.69 799.362 1223.69 801.849C1227.69 804.336 1230.48 808.261 1232.07 813.626C1233.26 817.649 1233.58 821.622 1233.03 825.546C1232.48 829.469 1231.07 833.179 1228.79 836.674C1226.53 840.113 1223.4 843.224 1219.4 846.006C1215.38 848.745 1210.51 850.957 1204.81 852.641L1166.79 863.864L1138.88 769.321L1173.89 758.985Z" fill="#00A39D"/>
<path d="M1286.09 746.83C1285.74 748.06 1285.28 749.043 1284.69 749.781C1284.14 750.505 1283.31 751.034 1282.17 751.368C1281.17 751.664 1279.99 751.683 1278.64 751.425C1277.32 751.111 1275.8 750.784 1274.09 750.443C1272.42 750.09 1270.56 749.887 1268.51 749.835C1266.45 749.739 1264.22 750.045 1261.82 750.752C1257.69 751.974 1254.85 753.772 1253.33 756.148C1251.84 758.468 1251.53 761.118 1252.41 764.1C1252.97 766.001 1254.05 767.398 1255.64 768.291C1257.23 769.184 1259.13 769.795 1261.36 770.124C1263.63 770.44 1266.15 770.614 1268.9 770.647C1271.69 770.623 1274.55 770.694 1277.49 770.86C1280.41 770.984 1283.32 771.299 1286.22 771.806C1289.16 772.301 1291.89 773.231 1294.43 774.597C1297.01 775.95 1299.32 777.851 1301.37 780.3C1303.4 782.705 1305 785.874 1306.16 789.806C1307.45 794.17 1307.89 798.479 1307.49 802.731C1307.09 806.983 1305.85 810.966 1303.77 814.679C1301.73 818.336 1298.81 821.616 1295.03 824.518C1291.28 827.364 1286.7 829.583 1281.3 831.178C1278.34 832.052 1275.22 832.643 1271.95 832.951C1268.73 833.246 1265.52 833.277 1262.32 833.045C1259.12 832.77 1256.03 832.25 1253.05 831.483C1250.08 830.716 1247.39 829.68 1244.96 828.375L1248.47 816.206C1248.78 815.317 1249.28 814.513 1249.96 813.793C1250.68 813.018 1251.54 812.482 1252.54 812.186C1253.85 811.801 1255.28 811.825 1256.83 812.261C1258.42 812.683 1260.19 813.147 1262.14 813.652C1264.13 814.145 1266.34 814.48 1268.76 814.658C1271.18 814.837 1273.87 814.489 1276.83 813.614C1280.83 812.432 1283.69 810.648 1285.4 808.264C1287.1 805.837 1287.39 802.722 1286.27 798.92C1285.62 796.716 1284.48 795.103 1282.85 794.08C1281.22 793.057 1279.27 792.388 1277 792.072C1274.77 791.743 1272.3 791.606 1269.57 791.66C1266.84 791.714 1264.02 791.723 1261.12 791.686C1258.21 791.606 1255.31 791.334 1252.43 790.87C1249.53 790.362 1246.79 789.41 1244.2 788.014C1241.64 786.562 1239.31 784.525 1237.21 781.903C1235.1 779.239 1233.39 775.703 1232.09 771.295C1231.05 767.752 1230.74 764.083 1231.19 760.288C1231.63 756.494 1232.86 752.867 1234.86 749.409C1236.87 745.95 1239.67 742.845 1243.27 740.094C1246.84 737.3 1251.25 735.131 1256.47 733.589C1259.39 732.727 1262.29 732.129 1265.18 731.795C1268.09 731.404 1270.92 731.296 1273.67 731.471C1276.41 731.602 1279.03 731.979 1281.54 732.603C1284.07 733.17 1286.42 733.98 1288.57 735.034L1286.09 746.83Z" fill="#00A39D"/>
<path fill-rule="evenodd" clip-rule="evenodd" d="M1358.17 700.34C1340.73 703.722 1337.48 714.654 1335.49 720.172C1325.9 703.288 1319.15 706.835 1310.12 704.531C1319.35 694.932 1319.55 684.183 1317.09 676.99C1330.27 681.609 1337.59 678.533 1346.22 673.226C1345.6 688.291 1349.68 691.284 1358.17 700.34Z" fill="#F8AD3C"/>
<path d="M1351.78 809.3L1328.82 816.078L1300.28 719.395C1315.21 717.066 1327.27 726.199 1330.9 738.564L1351.78 809.3Z" fill="#00A39D"/>
</g>
<g opacity="0.1" clip-path="url(#clip17_1067_3180)">
<path d="M704.537 838.45C707.455 837.588 709.721 836.52 711.333 835.244C712.988 833.956 714.166 832.574 714.867 831.097C715.567 829.621 715.896 828.089 715.854 826.503C715.812 824.916 715.568 823.366 715.121 821.852C714.61 820.122 713.911 818.635 713.023 817.392C712.179 816.136 711.05 815.2 709.637 814.582C708.267 813.952 706.591 813.647 704.609 813.668C702.626 813.689 700.241 814.111 697.454 814.933L682.037 819.484L688.989 843.039L704.537 838.45ZM670.812 781.46L677.708 804.819L689.205 801.426C691.644 800.706 693.793 799.883 695.65 798.959C697.508 798.034 698.984 796.94 700.079 795.676C701.217 794.4 701.911 792.902 702.161 791.182C702.455 789.449 702.263 787.437 701.586 785.144C700.922 782.894 700.09 781.118 699.09 779.814C698.077 778.467 696.848 777.513 695.404 776.952C693.96 776.39 692.266 776.185 690.322 776.336C688.421 776.473 686.23 776.909 683.747 777.641L670.812 781.46ZM678.901 761.225C685.478 759.283 691.253 758.237 696.227 758.086C701.201 757.934 705.473 758.531 709.042 759.876C712.611 761.221 715.515 763.279 717.754 766.051C720.036 768.811 721.752 772.137 722.901 776.03C723.527 778.15 723.828 780.295 723.806 782.465C723.771 784.591 723.355 786.713 722.56 788.829C721.751 790.902 720.534 792.954 718.909 794.986C717.283 797.017 715.186 798.977 712.618 800.863C719.337 800.526 724.696 801.601 728.698 804.088C732.699 806.576 735.491 810.501 737.074 815.865C738.262 819.889 738.582 823.862 738.036 827.785C737.49 831.709 736.075 835.418 733.793 838.914C731.541 842.353 728.411 845.464 724.403 848.246C720.382 850.985 715.519 853.196 709.814 854.88L671.793 866.103L643.885 771.561L678.901 761.225Z" fill="#00A39D"/>
<path d="M791.097 749.07C790.75 750.3 790.282 751.283 789.695 752.02C789.151 752.745 788.313 753.274 787.181 753.608C786.179 753.904 785.001 753.923 783.647 753.665C782.323 753.351 780.806 753.024 779.096 752.683C777.429 752.329 775.57 752.127 773.518 752.074C771.454 751.979 769.225 752.285 766.829 752.992C762.692 754.213 759.861 756.012 758.337 758.388C756.844 760.707 756.537 763.358 757.417 766.34C757.979 768.241 759.054 769.638 760.643 770.531C762.233 771.424 764.141 772.035 766.369 772.364C768.64 772.68 771.154 772.854 773.909 772.886C776.696 772.862 779.557 772.934 782.495 773.1C785.419 773.223 788.329 773.539 791.225 774.046C794.165 774.541 796.901 775.471 799.435 776.837C802.013 778.19 804.325 780.091 806.374 782.539C808.41 784.945 810.008 788.114 811.169 792.046C812.457 796.41 812.9 800.718 812.498 804.971C812.096 809.223 810.857 813.206 808.781 816.919C806.736 820.576 803.821 823.856 800.038 826.757C796.285 829.603 791.709 831.823 786.308 833.417C783.347 834.291 780.23 834.883 776.96 835.19C773.732 835.485 770.522 835.517 767.329 835.285C764.123 835.01 761.034 834.489 758.061 833.723C755.089 832.956 752.392 831.92 749.971 830.615L753.481 818.446C753.787 817.557 754.283 816.753 754.97 816.033C755.688 815.257 756.548 814.722 757.55 814.426C758.856 814.04 760.284 814.065 761.833 814.501C763.425 814.923 765.196 815.387 767.144 815.892C769.136 816.385 771.342 816.72 773.762 816.898C776.182 817.076 778.872 816.728 781.834 815.854C785.841 814.671 788.7 812.888 790.411 810.504C792.109 808.077 792.397 804.962 791.274 801.159C790.624 798.956 789.485 797.343 787.857 796.32C786.23 795.297 784.28 794.628 782.009 794.312C779.781 793.983 777.302 793.845 774.572 793.9C771.842 793.954 769.028 793.963 766.129 793.926C763.217 793.846 760.319 793.574 757.436 793.11C754.54 792.602 751.797 791.65 749.207 790.254C746.648 788.802 744.318 786.765 742.219 784.143C740.107 781.478 738.4 777.942 737.099 773.535C736.053 769.992 735.751 766.323 736.194 762.528C736.636 758.734 737.862 755.107 739.871 751.649C741.881 748.19 744.681 745.085 748.272 742.334C751.85 739.54 756.253 737.371 761.479 735.828C764.397 734.967 767.298 734.369 770.182 734.034C773.097 733.644 775.929 733.536 778.68 733.71C781.417 733.842 784.038 734.219 786.542 734.842C789.077 735.409 791.423 736.22 793.581 737.274L791.097 749.07Z" fill="#00A39D"/>
<path fill-rule="evenodd" clip-rule="evenodd" d="M863.172 702.58C845.738 705.962 842.485 716.894 840.498 722.412C830.902 705.527 824.152 709.075 815.129 706.771C824.353 697.172 824.553 686.423 822.098 679.23C835.272 683.849 842.599 680.773 851.232 675.466C850.603 690.53 854.691 693.523 863.172 702.58Z" fill="#F8AD3C"/>
<path d="M856.786 811.54L833.824 818.318L805.285 721.635C820.219 719.306 832.281 728.439 835.906 740.804L856.786 811.54Z" fill="#00A39D"/>
</g>
<g opacity="0.1" clip-path="url(#clip18_1067_3180)">
<path d="M2.35007 844.272C1.31316 845.019 0.335502 845.498 -0.582893 845.71C-1.45917 845.939 -2.44454 845.832 -3.53903 845.389C-4.50723 844.997 -5.44135 844.279 -6.34139 843.235C-7.18245 842.165 -8.16654 840.965 -9.29368 839.635C-10.3787 838.321 -11.708 837.006 -13.2816 835.689C-14.8383 834.33 -16.7742 833.182 -19.0895 832.246C-23.0886 830.628 -26.4237 830.275 -29.095 831.187C-31.7072 832.074 -33.5962 833.959 -34.762 836.84C-35.5054 838.678 -35.5328 840.441 -34.844 842.129C-34.1553 843.817 -33.0413 845.483 -31.5018 847.126C-29.9202 848.786 -28.0607 850.486 -25.9232 852.226C-23.7268 853.941 -21.5305 855.777 -19.3344 857.734C-17.1214 859.65 -15.0391 861.708 -13.0875 863.907C-11.0939 866.122 -9.53002 868.553 -8.39602 871.199C-7.21992 873.862 -6.59163 876.789 -6.51116 879.98C-6.41383 883.13 -7.13389 886.605 -8.67138 890.406C-10.3778 894.624 -12.7112 898.273 -15.6713 901.352C-18.6315 904.432 -22.0794 906.779 -26.0149 908.395C-29.8914 909.985 -34.2134 910.74 -38.9808 910.658C-43.6892 910.551 -48.6533 909.442 -53.8732 907.331C-56.7357 906.173 -59.5431 904.697 -62.2953 902.903C-65.0055 901.126 -67.5386 899.154 -69.8945 896.986C-72.2335 894.776 -74.3281 892.446 -76.1783 889.997C-78.0285 887.547 -79.4954 885.058 -80.579 882.53L-70.2604 875.186C-69.468 874.681 -68.579 874.36 -67.5933 874.224C-66.5487 874.063 -65.5422 874.179 -64.574 874.571C-63.3112 875.082 -62.2088 875.989 -61.267 877.294C-60.283 878.615 -59.1855 880.08 -57.9745 881.687C-56.7213 883.312 -55.2029 884.947 -53.4191 886.592C-51.6354 888.237 -49.3122 889.639 -46.4497 890.797C-42.5769 892.363 -39.2292 892.746 -36.4065 891.944C-33.5669 891.1 -31.4036 888.84 -29.9168 885.165C-29.0551 883.035 -28.9433 881.063 -29.5813 879.25C-30.2193 877.436 -31.3292 875.7 -32.9107 874.039C-34.4502 872.396 -36.3056 870.746 -38.4768 869.09C-40.648 867.434 -42.857 865.69 -45.1039 863.858C-47.3338 861.984 -49.433 859.968 -51.4015 857.811C-53.353 855.612 -54.9084 853.16 -56.0676 850.456C-57.1678 847.727 -57.7244 844.683 -57.7373 841.324C-57.7332 837.924 -56.8696 834.093 -55.1462 829.833C-53.7608 826.409 -51.7145 823.348 -49.0075 820.653C-46.3005 817.957 -43.0846 815.88 -39.3599 814.423C-35.6351 812.965 -31.5111 812.276 -26.988 812.356C-22.4479 812.395 -17.6522 813.436 -12.6007 815.479C-9.78028 816.62 -7.13699 817.957 -4.6708 819.489C-2.14563 820.997 0.139254 822.674 2.18388 824.522C4.24543 826.328 6.06257 828.254 7.63527 830.299C9.26698 832.32 10.5996 834.415 11.6331 836.582L2.35007 844.272Z" fill="#00A39D"/>
<path fill-rule="evenodd" clip-rule="evenodd" d="M87.7008 852.714C71.948 844.516 62.5997 851.05 57.6111 854.135C60.6031 834.946 53.111 833.523 47.4799 826.107C60.6736 824.33 67.5171 816.038 70.0699 808.879C77.5106 820.692 85.1608 822.842 95.2208 824.057C85.3573 835.461 86.6956 840.347 87.7008 852.714Z" fill="#F8AD3C"/>
<path d="M14.9158 934.048L-7.27834 925.069L30.5261 831.619C43.6665 839.087 47.4286 853.741 42.5744 865.677L14.9158 934.048Z" fill="#00A39D"/>
</g>
</g>
</g>
</g>
<rect x="-13" y="690.222" width="1675" height="1154" rx="445.549" fill="url(#paint1_linear_1067_3180)"/>
</g>
<defs>
<linearGradient id="paint0_linear_1067_3180" x1="854.095" y1="0.222168" x2="856.123" y2="884.938" gradientUnits="userSpaceOnUse">
<stop offset="0.322115" stop-color="#D9D9D9"/>
<stop offset="1" stop-color="#737373" stop-opacity="0"/>
</linearGradient>
<linearGradient id="paint1_linear_1067_3180" x1="824.5" y1="690.222" x2="824.5" y2="2292.68" gradientUnits="userSpaceOnUse">
<stop stop-color="white" stop-opacity="0"/>
<stop offset="1" stop-color="#F8AD3C" stop-opacity="0.75"/>
</linearGradient>
<clipPath id="clip0_1067_3180">
<rect width="1660" height="1472" fill="white"/>
</clipPath>
<clipPath id="clip1_1067_3180">
<rect width="1655" height="2318" fill="white" transform="translate(5 0.222168)"/>
</clipPath>
<clipPath id="clip2_1067_3180">
<rect width="229.578" height="137.747" fill="white" transform="translate(-38.8376 634.188)"/>
</clipPath>
<clipPath id="clip3_1067_3180">
<rect width="229.578" height="137.747" fill="white" transform="translate(898.514 699.141)"/>
</clipPath>
<clipPath id="clip4_1067_3180">
<rect width="229.578" height="137.747" fill="white" transform="translate(468.475 577.073)"/>
</clipPath>
<clipPath id="clip5_1067_3180">
<rect width="229.578" height="137.747" fill="white" transform="translate(750.688 530.037)"/>
</clipPath>
<clipPath id="clip6_1067_3180">
<rect width="229.578" height="137.747" fill="white" transform="translate(1497.91 539.938) rotate(-9.54139)"/>
</clipPath>
<clipPath id="clip7_1067_3180">
<rect width="229.578" height="137.747" fill="white" transform="translate(1014.19 509.879) rotate(10.9146)"/>
</clipPath>
<clipPath id="clip8_1067_3180">
<rect width="229.578" height="137.747" fill="white" transform="translate(1281.84 521.078) rotate(10.9146)"/>
</clipPath>
<clipPath id="clip9_1067_3180">
<rect width="229.578" height="137.747" fill="white" transform="translate(393.442 766.335)"/>
</clipPath>
<clipPath id="clip10_1067_3180">
<rect width="229.578" height="137.747" fill="white" transform="translate(1291.83 833.529) rotate(6.63382)"/>
</clipPath>
<clipPath id="clip11_1067_3180">
<rect width="229.578" height="137.747" fill="white" transform="translate(1655.8 629.708) rotate(6.63382)"/>
</clipPath>
<clipPath id="clip12_1067_3180">
<rect width="229.578" height="137.747" fill="white" transform="translate(1378.95 725.613) rotate(-14.5893)"/>
</clipPath>
<clipPath id="clip13_1067_3180">
<rect width="229.578" height="137.747" fill="white" transform="translate(1527.89 840.962) rotate(-14.5893)"/>
</clipPath>
<clipPath id="clip14_1067_3180">
<rect width="229.578" height="137.747" fill="white" transform="translate(129.857 777.798) rotate(8.06002)"/>
</clipPath>
<clipPath id="clip15_1067_3180">
<rect width="229.578" height="137.747" fill="white" transform="translate(190.741 667.825) rotate(-16.4456)"/>
</clipPath>
<clipPath id="clip16_1067_3180">
<rect width="229.578" height="137.747" fill="white" transform="translate(1128.09 732.779) rotate(-16.4456)"/>
</clipPath>
<clipPath id="clip17_1067_3180">
<rect width="229.578" height="137.747" fill="white" transform="translate(633.099 735.019) rotate(-16.4456)"/>
</clipPath>
<clipPath id="clip18_1067_3180">
<rect width="229.578" height="137.747" fill="white" transform="translate(-112.609 734.978) rotate(22.0254)"/>
</clipPath>
</defs>
</svg>
