<svg width="40" height="40" viewBox="0 0 40 40" fill="none" xmlns="http://www.w3.org/2000/svg">
<path d="M0 8C0 3.58172 3.58172 0 8 0H32C36.4183 0 40 3.58172 40 8V32C40 36.4183 36.4183 40 32 40H8C3.58172 40 0 36.4183 0 32V8Z" fill="#F0EFF0"/>
<path d="M25 11H29C29.2652 11 29.5196 11.1054 29.7071 11.2929C29.8946 11.4804 30 11.7348 30 12V28C30 28.2652 29.8946 28.5196 29.7071 28.7071C29.5196 28.8946 29.2652 29 29 29H11C10.7348 29 10.4804 28.8946 10.2929 28.7071C10.1054 28.5196 10 28.2652 10 28V12C10 11.7348 10.1054 11.4804 10.2929 11.2929C10.4804 11.1054 10.7348 11 11 11H15V9H17V11H23V9H25V11ZM23 13H17V15H15V13H12V17H28V13H25V15H23V13ZM28 19H12V27H28V19Z" fill="#262B43" fill-opacity="0.9"/>
</svg>
