<svg width="17" height="17" viewBox="0 0 17 17" fill="none" xmlns="http://www.w3.org/2000/svg">
<path d="M5.31563 0H1.74375C0.7875 0 0 0.7875 0 1.74375V5.31562C0 6.27187 0.7875 7.05938 1.74375 7.05938H5.31563C6.27188 7.05938 7.05938 6.27187 7.05938 5.31562V1.77187C7.0875 0.7875 6.3 0 5.31563 0ZM5.82188 5.34375C5.82188 5.625 5.59688 5.85 5.31563 5.85H1.74375C1.4625 5.85 1.2375 5.625 1.2375 5.34375V1.77187C1.2375 1.49062 1.4625 1.26562 1.74375 1.26562H5.31563C5.59688 1.26562 5.82188 1.49062 5.82188 1.77187V5.34375Z" fill="white"/>
<path d="M14.6809 0H11.109C10.1527 0 9.36523 0.7875 9.36523 1.74375V5.31562C9.36523 6.27187 10.1527 7.05938 11.109 7.05938H14.6809C15.6371 7.05938 16.4246 6.27187 16.4246 5.31562V1.77187C16.4246 0.7875 15.6371 0 14.6809 0ZM15.1871 5.34375C15.1871 5.625 14.9621 5.85 14.6809 5.85H11.109C10.8277 5.85 10.6027 5.625 10.6027 5.34375V1.77187C10.6027 1.49062 10.8277 1.26562 11.109 1.26562H14.6809C14.9621 1.26562 15.1871 1.49062 15.1871 1.77187V5.34375Z" fill="white"/>
<path d="M5.31563 8.97168H1.74375C0.7875 8.97168 0 9.75918 0 10.7154V14.2873C0 15.2436 0.7875 16.0311 1.74375 16.0311H5.31563C6.27188 16.0311 7.05938 15.2436 7.05938 14.2873V10.7436C7.0875 9.75918 6.3 8.97168 5.31563 8.97168ZM5.82188 14.3154C5.82188 14.5967 5.59688 14.8217 5.31563 14.8217H1.74375C1.4625 14.8217 1.2375 14.5967 1.2375 14.3154V10.7436C1.2375 10.4623 1.4625 10.2373 1.74375 10.2373H5.31563C5.59688 10.2373 5.82188 10.4623 5.82188 10.7436V14.3154Z" fill="white"/>
<path d="M14.6809 8.97168H11.109C10.1527 8.97168 9.36523 9.75918 9.36523 10.7154V14.2873C9.36523 15.2436 10.1527 16.0311 11.109 16.0311H14.6809C15.6371 16.0311 16.4246 15.2436 16.4246 14.2873V10.7436C16.4246 9.75918 15.6371 8.97168 14.6809 8.97168ZM15.1871 14.3154C15.1871 14.5967 14.9621 14.8217 14.6809 14.8217H11.109C10.8277 14.8217 10.6027 14.5967 10.6027 14.3154V10.7436C10.6027 10.4623 10.8277 10.2373 11.109 10.2373H14.6809C14.9621 10.2373 15.1871 10.4623 15.1871 10.7436V14.3154Z" fill="white"/>
</svg>
