<svg width="14" height="17" viewBox="0 0 14 17" fill="none" xmlns="http://www.w3.org/2000/svg">
<path d="M4.66667 14H1.55556C1.12778 14 0.761704 13.8478 0.457333 13.5434C0.152963 13.2391 0.000518518 12.8727 0 12.4444V1.55556C0 1.12778 0.152444 0.761704 0.457333 0.457333C0.762222 0.152963 1.1283 0.000518518 1.55556 0H12.4444C12.8722 0 13.2386 0.152444 13.5434 0.457333C13.8483 0.762222 14.0005 1.1283 14 1.55556V12.4444C14 12.8722 13.8478 13.2386 13.5434 13.5434C13.2391 13.8483 12.8727 14.0005 12.4444 14H9.33333L7.54444 15.7889C7.38889 15.9444 7.20741 16.0222 7 16.0222C6.79259 16.0222 6.61111 15.9444 6.45555 15.7889L4.66667 14ZM1.55556 12.4444H5.28889L7 14.1556L8.71111 12.4444H12.4444V1.55556H1.55556V12.4444ZM6.92222 11.6667C7.19444 11.6667 7.42467 11.5726 7.61289 11.3843C7.80111 11.1961 7.89496 10.9661 7.89444 10.6944C7.89392 10.4227 7.79981 10.1925 7.61211 10.0038C7.42441 9.81504 7.19444 9.72118 6.92222 9.72222C6.65 9.72326 6.41978 9.81737 6.23155 10.0046C6.04333 10.1917 5.94948 10.4217 5.95 10.6944C5.95052 10.9672 6.04463 11.1974 6.23233 11.3851C6.42004 11.5728 6.65 11.6667 6.92222 11.6667ZM8.28333 4.66667C8.28333 4.88704 8.21204 5.12374 8.06944 5.37678C7.92685 5.62981 7.68704 5.90515 7.35 6.20278C7.12963 6.39722 6.95152 6.58207 6.81567 6.75733C6.67981 6.93259 6.56626 7.1107 6.475 7.29167C6.42315 7.39537 6.38426 7.49907 6.35833 7.60278C6.33241 7.70648 6.30648 7.82315 6.28055 7.95278C6.25463 8.14722 6.30648 8.31574 6.43611 8.45833C6.56574 8.60092 6.73426 8.67222 6.94167 8.67222C7.12315 8.67222 7.28518 8.60741 7.42778 8.47778C7.57037 8.34815 7.66759 8.17315 7.71944 7.95278C7.75833 7.7713 7.833 7.60278 7.94344 7.44722C8.05389 7.29167 8.232 7.09074 8.47778 6.84444C8.93148 6.39074 9.25244 6.00833 9.44067 5.69722C9.62889 5.38611 9.72274 5.04259 9.72222 4.66667C9.72222 3.96667 9.48578 3.40278 9.01289 2.975C8.54 2.54722 7.89496 2.33333 7.07778 2.33333C6.49444 2.33333 5.98889 2.45648 5.56111 2.70278C5.13333 2.94907 4.78981 3.29259 4.53055 3.73333C4.43981 3.88889 4.4367 4.05093 4.52122 4.21944C4.60574 4.38796 4.73848 4.50463 4.91944 4.56944C5.08796 4.63426 5.25648 4.63426 5.425 4.56944C5.59352 4.50463 5.72963 4.40093 5.83333 4.25833C5.97592 4.07685 6.15093 3.93115 6.35833 3.82122C6.56574 3.7113 6.80555 3.65607 7.07778 3.65556C7.41481 3.65556 7.7 3.74941 7.93333 3.93711C8.16667 4.12481 8.28333 4.368 8.28333 4.66667Z" fill="white"/>
</svg>
