<svg width="17" height="14" viewBox="0 0 17 14" fill="none" xmlns="http://www.w3.org/2000/svg">
<path d="M1.75 3.0625H14.3066C14.4079 3.06258 14.4928 3.09195 14.5762 3.16016C14.6384 3.2111 14.6815 3.26948 14.709 3.34082L14.7314 3.41699L15.6055 7.78613L15.6064 7.79004C15.6383 7.94148 15.6092 8.04871 15.5225 8.15332C15.4314 8.2631 15.3291 8.31211 15.1807 8.3125H14.5908V13.125C14.5908 13.2625 14.5488 13.3574 14.4668 13.4395C14.3848 13.5214 14.2905 13.5628 14.1543 13.5625C14.017 13.5622 13.9213 13.5205 13.8389 13.4385C13.7573 13.3572 13.7158 13.2625 13.7158 13.125V8.3125H9.34082V13.125C9.34082 13.2625 9.29883 13.3574 9.2168 13.4395C9.13482 13.5214 9.04049 13.5628 8.9043 13.5625H1.90332C1.76586 13.5625 1.6711 13.521 1.58984 13.4395C1.52826 13.3777 1.48943 13.3083 1.47363 13.2197L1.46582 13.124V8.3125H0.875C0.727071 8.3125 0.625235 8.2635 0.53418 8.15332C0.446997 8.04775 0.418476 7.94039 0.450195 7.79004L0.451172 7.78613L1.3252 3.41016C1.34888 3.3054 1.3991 3.22673 1.48047 3.16016C1.56391 3.092 1.64863 3.0625 1.75 3.0625ZM2.34082 12.6875H8.46582V8.3125H2.34082V12.6875ZM1.90332 0.4375H14.1533C14.2907 0.437541 14.3858 0.479502 14.4678 0.561523C14.5497 0.643495 14.5911 0.737835 14.5908 0.874023C14.5905 1.01136 14.5484 1.10725 14.4658 1.19043C14.4052 1.25144 14.3374 1.28954 14.25 1.30469L14.1553 1.3125H1.90332C1.76586 1.3125 1.67111 1.27098 1.58984 1.18945C1.50771 1.10703 1.46616 1.01142 1.46582 0.874023C1.4655 0.738231 1.50646 0.643642 1.58887 0.561523C1.67211 0.478632 1.76767 0.4375 1.90332 0.4375Z" stroke="white" stroke-width="0.875"/>
</svg>
