<svg width="161" height="55" viewBox="0 0 161 55" fill="none" xmlns="http://www.w3.org/2000/svg">
<path d="M54.4698 13.416H54.4146V13.4239C54.4303 13.4239 54.4461 13.416 54.4698 13.416Z" fill="#168F8C"/>
<path d="M54.8364 12.8921V46.4163H62.7171V21.2888C62.7171 19.4124 61.7164 13.7443 54.8364 12.8921Z" fill="white"/>
<path d="M12.9312 40.584C13.932 40.584 14.7529 40.4589 15.3939 40.2009C16.0272 39.9507 16.5276 39.6145 16.8872 39.2158C17.239 38.8092 17.4892 38.3558 17.6221 37.8476C17.755 37.3394 17.8254 36.8234 17.8254 36.2996C17.8254 35.6976 17.7472 35.1582 17.5908 34.6813C17.4345 34.2043 17.1609 33.7978 16.7856 33.4694C16.4025 33.1411 15.8943 32.8831 15.2689 32.7033C14.6356 32.5234 13.846 32.4374 12.8843 32.4374H7.59143V40.584H12.9312ZM7.59143 19.2873V27.3635H11.5396C12.3761 27.3635 13.1345 27.3087 13.8069 27.1836C14.4792 27.0664 15.0499 26.8553 15.5269 26.5582C15.9959 26.2611 16.3556 25.8467 16.6058 25.3229C16.8481 24.7991 16.9732 24.1424 16.9732 23.3449C16.9732 22.5709 16.8716 21.922 16.6839 21.406C16.4885 20.89 16.1836 20.4757 15.7849 20.1629C15.3783 19.8502 14.8623 19.6235 14.2447 19.4906C13.627 19.3577 12.8843 19.2873 12.0321 19.2873H7.59143ZM12.0321 13.6113C14.2916 13.6113 16.2149 13.8224 17.8019 14.2368C19.389 14.659 20.6868 15.2453 21.6876 16.0115C22.6883 16.7699 23.4232 17.7002 23.8766 18.7948C24.3301 19.8815 24.5646 21.1011 24.5646 22.4537C24.5646 23.1807 24.4552 23.8922 24.2441 24.5724C24.0408 25.2526 23.7046 25.8858 23.259 26.48C22.8134 27.0664 22.2348 27.6136 21.5312 28.1062C20.8276 28.5987 19.9832 29.0287 18.9903 29.3884C21.1481 29.9122 22.743 30.7565 23.775 31.9214C24.807 33.0864 25.323 34.6031 25.323 36.456C25.323 37.8476 25.0572 39.1376 24.5177 40.3338C23.9783 41.53 23.1886 42.5776 22.1488 43.4689C21.109 44.3601 19.8268 45.0559 18.2945 45.5563C16.7699 46.0567 15.0265 46.3069 13.0641 46.3069H0V13.6113H12.0321Z" fill="white"/>
<path d="M48.1365 20.2487C47.9098 20.6083 47.6752 20.882 47.425 21.0618C47.1827 21.2416 46.8621 21.3276 46.4712 21.3276C46.1272 21.3276 45.7598 21.2182 45.361 20.9993C44.9701 20.7882 44.5167 20.5458 44.0163 20.2722C43.516 20.0064 42.9452 19.764 42.2963 19.5451C41.6552 19.3262 40.9203 19.2167 40.0994 19.2167C38.6765 19.2167 37.6133 19.5216 36.9174 20.1314C36.2216 20.7334 35.8776 21.5543 35.8776 22.5863C35.8776 23.2431 36.0887 23.7903 36.5031 24.2203C36.9253 24.6582 37.4725 25.0334 38.1527 25.3461C38.8407 25.6589 39.6147 25.9481 40.4903 26.2061C41.366 26.472 42.2572 26.7612 43.172 27.0818C44.0867 27.4101 44.978 27.7854 45.8536 28.2154C46.7292 28.6532 47.511 29.2083 48.1912 29.8807C48.8714 30.553 49.4265 31.3739 49.8408 32.3356C50.263 33.2972 50.4741 34.4621 50.4741 35.8225C50.4741 37.3392 50.2083 38.7543 49.6845 40.0677C49.1607 41.3812 48.4023 42.5305 47.4094 43.5155C46.4087 44.4928 45.1812 45.259 43.727 45.8219C42.2651 46.3848 40.6076 46.6663 38.7547 46.6663C37.7305 46.6663 36.6985 46.5568 35.6431 46.3535C34.5876 46.1424 33.5634 45.8453 32.5784 45.4623C31.5855 45.0792 30.6629 44.6335 29.7951 44.1097C28.9273 43.5859 28.1689 42.9995 27.5278 42.3585L29.7716 38.809C29.9515 38.5588 30.186 38.3399 30.4753 38.1679C30.7724 37.9959 31.0851 37.9099 31.4291 37.9099C31.8825 37.9099 32.336 38.0585 32.7894 38.3399C33.2429 38.6214 33.7667 38.9341 34.3374 39.2781C34.916 39.6221 35.5805 39.9426 36.3233 40.2241C37.0738 40.5056 37.9572 40.6541 38.9736 40.6541C40.3496 40.6541 41.4207 40.3492 42.1869 39.7394C42.9531 39.1374 43.3283 38.1757 43.3283 36.8545C43.3283 36.0961 43.1172 35.4707 42.7029 34.9938C42.2807 34.5168 41.7334 34.1181 41.0532 33.8054C40.3731 33.4927 39.5991 33.2112 38.7312 32.9767C37.8634 32.7343 36.9722 32.4685 36.0574 32.1792C35.1427 31.8899 34.2514 31.5303 33.3836 31.1003C32.5158 30.6781 31.7418 30.1152 31.0616 29.4194C30.3815 28.7236 29.8264 27.8558 29.412 26.816C28.9898 25.7761 28.7787 24.494 28.7787 22.9694C28.7787 21.742 29.0289 20.5458 29.5215 19.3731C30.014 18.2082 30.7411 17.1684 31.7027 16.2536C32.6565 15.3467 33.8371 14.6118 35.2287 14.0724C36.6203 13.5251 38.2152 13.2515 40.0056 13.2515C41.0141 13.2515 41.9914 13.3296 42.9374 13.486C43.8912 13.6424 44.7903 13.8769 45.6425 14.1818C46.4947 14.4867 47.2921 14.8542 48.0349 15.2842C48.7776 15.7064 49.4343 16.1911 50.0207 16.7305L48.1365 20.2487Z" fill="white"/>
<path d="M63.5852 0.813088C63.5617 0.539453 63.5304 0.265817 63.4914 0C65.2583 1.82163 67.7757 2.8849 70.5042 2.7129C71.8099 2.63472 73.0295 2.27508 74.1162 1.69654C73.2719 3.17417 72.8341 4.89417 72.9513 6.7158C73.0921 8.96742 74.0537 10.9689 75.5235 12.4543C74.773 12.3058 73.9911 12.2432 73.1859 12.298C69.9961 12.5012 67.2988 14.3463 65.8759 16.9576C65.313 13.0954 62.3108 10.0932 58.5659 9.43651C61.7323 7.88852 63.8197 4.54235 63.5852 0.813088Z" fill="#F9AD3C"/>
<path d="M147.591 43.0495L146.144 39.3004C146.101 39.1889 146.056 39.0603 146.009 38.9145C145.962 38.7645 145.917 38.6058 145.874 38.4386C145.784 38.7859 145.691 39.0753 145.597 39.3068L144.15 43.0495H147.591ZM150.189 46.4707H149.224C149.113 46.4707 149.023 46.4428 148.954 46.3871C148.885 46.3313 148.834 46.2606 148.8 46.1748L147.938 43.9498H143.803L142.941 46.1748C142.915 46.252 142.866 46.3206 142.793 46.3806C142.72 46.4406 142.63 46.4707 142.523 46.4707H141.559L145.243 37.2554H146.504L150.189 46.4707Z" fill="white"/>
<path d="M142.234 38.3036H139.25V46.4707H138.009V38.3036H135.019V37.2554H142.234V38.3036Z" fill="white"/>
<path d="M130.793 41.7183C131.153 41.7183 131.471 41.6754 131.745 41.5897C132.024 41.4997 132.255 41.3753 132.44 41.2167C132.628 41.0538 132.77 40.8609 132.864 40.638C132.958 40.415 133.005 40.1685 133.005 39.8984C133.005 39.3497 132.825 38.9359 132.465 38.6573C132.105 38.3786 131.565 38.2393 130.845 38.2393H129.481V41.7183H130.793ZM135.05 46.4707H133.944C133.717 46.4707 133.55 46.3828 133.443 46.207L131.05 42.9144C130.978 42.8116 130.898 42.7387 130.813 42.6958C130.731 42.6486 130.602 42.6251 130.427 42.6251H129.481V46.4707H128.24V37.2554H130.845C131.428 37.2554 131.931 37.3154 132.356 37.4354C132.78 37.5512 133.13 37.7205 133.404 37.9435C133.683 38.1664 133.889 38.4365 134.021 38.7537C134.154 39.0667 134.221 39.4183 134.221 39.8084C134.221 40.1342 134.169 40.4386 134.067 40.7216C133.964 41.0045 133.814 41.2596 133.616 41.4868C133.423 41.7097 133.185 41.9005 132.903 42.0592C132.624 42.2178 132.307 42.3378 131.951 42.4193C132.109 42.5093 132.247 42.6401 132.362 42.8116L135.05 46.4707Z" fill="white"/>
<path d="M124.43 43.0495L122.983 39.3004C122.94 39.1889 122.895 39.0603 122.848 38.9145C122.801 38.7645 122.756 38.6058 122.713 38.4386C122.623 38.7859 122.531 39.0753 122.436 39.3068L120.99 43.0495H124.43ZM127.028 46.4707H126.063C125.952 46.4707 125.862 46.4428 125.793 46.3871C125.725 46.3313 125.673 46.2606 125.639 46.1748L124.777 43.9498H120.642L119.781 46.1748C119.755 46.252 119.706 46.3206 119.633 46.3806C119.56 46.4406 119.47 46.4707 119.363 46.4707H118.398L122.083 37.2554H123.343L127.028 46.4707Z" fill="white"/>
<path d="M112.262 41.2939H112.731C112.894 41.2939 113.025 41.2746 113.123 41.236C113.222 41.1931 113.312 41.1224 113.393 41.0238L116.461 37.5512C116.547 37.4397 116.637 37.3626 116.731 37.3197C116.825 37.2768 116.941 37.2554 117.078 37.2554H118.133L114.622 41.2232C114.536 41.326 114.452 41.4118 114.371 41.4804C114.294 41.5447 114.21 41.5983 114.12 41.6412C114.236 41.6797 114.341 41.7376 114.435 41.8148C114.53 41.8877 114.622 41.9841 114.712 42.1042L118.377 46.4707H117.297C117.215 46.4707 117.145 46.4664 117.085 46.4578C117.029 46.4449 116.98 46.4278 116.937 46.4063C116.894 46.3806 116.855 46.3528 116.821 46.3227C116.791 46.2885 116.761 46.2499 116.731 46.207L113.554 42.5479C113.468 42.4407 113.376 42.3657 113.278 42.3228C113.179 42.2757 113.029 42.2521 112.828 42.2521H112.262V46.4707H111.021V37.2554H112.262V41.2939Z" fill="white"/>
<path d="M107.21 43.0495L105.763 39.3004C105.72 39.1889 105.675 39.0603 105.628 38.9145C105.581 38.7645 105.536 38.6058 105.493 38.4386C105.403 38.7859 105.311 39.0753 105.217 39.3068L103.77 43.0495H107.21ZM109.808 46.4707H108.844C108.732 46.4707 108.642 46.4428 108.574 46.3871C108.505 46.3313 108.454 46.2606 108.419 46.1748L107.558 43.9498H103.423L102.561 46.1748C102.535 46.252 102.486 46.3206 102.413 46.3806C102.34 46.4406 102.25 46.4707 102.143 46.4707H101.178L104.863 37.2554H106.123L109.808 46.4707Z" fill="white"/>
<path d="M98.6545 42.7987V46.4707H97.4069V42.7987L94.0308 37.2554H95.124C95.2355 37.2554 95.3233 37.2832 95.3877 37.339C95.452 37.3904 95.5077 37.459 95.5549 37.5448L97.6641 41.1267C97.7413 41.2767 97.8121 41.4182 97.8764 41.5511C97.9407 41.6797 97.9964 41.8105 98.0436 41.9434C98.0907 41.8105 98.1443 41.6797 98.2043 41.5511C98.2643 41.4182 98.3308 41.2767 98.4037 41.1267L100.507 37.5448C100.545 37.4719 100.599 37.4054 100.667 37.3454C100.736 37.2854 100.824 37.2554 100.931 37.2554H102.031L98.6545 42.7987Z" fill="white"/>
<path d="M93.4987 42.0397V45.5766C93.0356 45.911 92.5405 46.1618 92.0132 46.329C91.4901 46.492 90.9156 46.5734 90.2897 46.5734C89.548 46.5734 88.8792 46.4598 88.2833 46.2326C87.6874 46.0011 87.1772 45.6795 86.7528 45.268C86.3326 44.8521 86.009 44.3548 85.7817 43.776C85.5545 43.1973 85.4409 42.5606 85.4409 41.8661C85.4409 41.163 85.5502 40.5221 85.7689 39.9433C85.9918 39.3645 86.3069 38.8694 86.7142 38.4578C87.1215 38.0419 87.6167 37.7204 88.1997 37.4932C88.7828 37.266 89.4344 37.1523 90.1547 37.1523C90.5191 37.1523 90.8578 37.1802 91.1707 37.2359C91.4837 37.2874 91.7731 37.3646 92.0389 37.4675C92.3047 37.5661 92.5512 37.6882 92.7784 37.834C93.0056 37.9755 93.2179 38.1363 93.4151 38.3163L93.0614 38.8822C93.0056 38.968 92.9328 39.0237 92.8427 39.0494C92.757 39.0709 92.6605 39.0494 92.5533 38.9851C92.4504 38.9251 92.3326 38.8522 92.1997 38.7665C92.0667 38.6807 91.9038 38.5993 91.7109 38.5221C91.5223 38.4406 91.2972 38.372 91.0357 38.3163C90.7785 38.2606 90.4719 38.2327 90.1161 38.2327C89.5973 38.2327 89.1279 38.3185 88.7077 38.4899C88.2876 38.6571 87.9296 38.8994 87.6338 39.2166C87.338 39.5296 87.1108 39.9111 86.9521 40.3613C86.7935 40.8072 86.7142 41.3088 86.7142 41.8661C86.7142 42.4449 86.7957 42.9636 86.9586 43.4223C87.1258 43.8768 87.3616 44.2648 87.666 44.5863C87.9746 44.9036 88.3476 45.1458 88.7849 45.313C89.2222 45.4802 89.7131 45.5638 90.2576 45.5638C90.6863 45.5638 91.0657 45.5166 91.3958 45.4223C91.7302 45.3237 92.056 45.1887 92.3733 45.0172V42.9915H90.9392C90.8578 42.9915 90.7913 42.9679 90.7399 42.9207C90.6927 42.8736 90.6691 42.8157 90.6691 42.7471V42.0397H93.4987Z" fill="white"/>
<path d="M84.2288 41.8661C84.2288 42.5563 84.1194 43.1908 83.9008 43.7696C83.6821 44.3441 83.3735 44.8392 82.9748 45.2551C82.5761 45.671 82.0959 45.9946 81.5343 46.2261C80.9769 46.4534 80.3596 46.567 79.6822 46.567C79.0048 46.567 78.3875 46.4534 77.8301 46.2261C77.2728 45.9946 76.7948 45.671 76.3961 45.2551C75.9974 44.8392 75.6887 44.3441 75.4701 43.7696C75.2514 43.1908 75.1421 42.5563 75.1421 41.8661C75.1421 41.1759 75.2514 40.5435 75.4701 39.969C75.6887 39.3902 75.9974 38.8929 76.3961 38.4771C76.7948 38.0569 77.2728 37.7311 77.8301 37.4996C78.3875 37.2681 79.0048 37.1523 79.6822 37.1523C80.3596 37.1523 80.9769 37.2681 81.5343 37.4996C82.0959 37.7311 82.5761 38.0569 82.9748 38.4771C83.3735 38.8929 83.6821 39.3902 83.9008 39.969C84.1194 40.5435 84.2288 41.1759 84.2288 41.8661ZM82.949 41.8661C82.949 41.3002 82.8719 40.7922 82.7175 40.342C82.5632 39.8918 82.3445 39.5124 82.0616 39.2038C81.7786 38.8908 81.4357 38.6507 81.0327 38.4835C80.6297 38.3163 80.1795 38.2327 79.6822 38.2327C79.1892 38.2327 78.7412 38.3163 78.3382 38.4835C77.9352 38.6507 77.5901 38.8908 77.3028 39.2038C77.0199 39.5124 76.8012 39.8918 76.6469 40.342C76.4926 40.7922 76.4154 41.3002 76.4154 41.8661C76.4154 42.432 76.4926 42.94 76.6469 43.3902C76.8012 43.836 77.0199 44.2155 77.3028 44.5284C77.5901 44.8371 77.9352 45.075 78.3382 45.2422C78.7412 45.4052 79.1892 45.4866 79.6822 45.4866C80.1795 45.4866 80.6297 45.4052 81.0327 45.2422C81.4357 45.075 81.7786 44.8371 82.0616 44.5284C82.3445 44.2155 82.5632 43.836 82.7175 43.3902C82.8719 42.94 82.949 42.432 82.949 41.8661Z" fill="white"/>
<path d="M71.6379 42.7987V46.4707H70.3903V42.7987L67.0142 37.2554H68.1074C68.2189 37.2554 68.3067 37.2832 68.3711 37.339C68.4354 37.3904 68.4911 37.459 68.5383 37.5448L70.6475 41.1267C70.7247 41.2767 70.7954 41.4182 70.8598 41.5511C70.9241 41.6797 70.9798 41.8105 71.027 41.9434C71.0741 41.8105 71.1277 41.6797 71.1877 41.5511C71.2477 41.4182 71.3142 41.2767 71.3871 41.1267L73.4899 37.5448C73.5285 37.4719 73.5821 37.4054 73.6507 37.3454C73.7193 37.2854 73.8072 37.2554 73.9144 37.2554H75.014L71.6379 42.7987Z" fill="white"/>
<path d="M156.742 27.7032C157.103 27.7032 157.42 27.6603 157.694 27.5746C157.973 27.4845 158.204 27.3602 158.389 27.2016C158.577 27.0387 158.719 26.8457 158.813 26.6228C158.907 26.3999 158.955 26.1534 158.955 25.8833C158.955 25.3345 158.775 24.9208 158.414 24.6421C158.054 24.3635 157.514 24.2241 156.794 24.2241H155.431V27.7032H156.742ZM161 32.4555H159.894C159.666 32.4555 159.499 32.3676 159.392 32.1919L157 28.8993C156.927 28.7964 156.847 28.7235 156.762 28.6807C156.68 28.6335 156.552 28.6099 156.376 28.6099H155.431V32.4555H154.189V23.2402H156.794C157.377 23.2402 157.881 23.3003 158.305 23.4203C158.73 23.536 159.079 23.7054 159.353 23.9283C159.632 24.1513 159.838 24.4214 159.971 24.7386C160.104 25.0516 160.17 25.4031 160.17 25.7932C160.17 26.1191 160.119 26.4235 160.016 26.7064C159.913 26.9894 159.763 27.2445 159.566 27.4717C159.373 27.6946 159.135 27.8854 158.852 28.044C158.573 28.2026 158.256 28.3227 157.9 28.4041C158.059 28.4942 158.196 28.6249 158.312 28.7964L161 32.4555Z" fill="white"/>
<path d="M152.451 31.4395L152.445 32.4555H146.767V23.2402H152.445V24.2563H148.014V27.3173H151.603V28.2948H148.014V31.4395H152.451Z" fill="white"/>
<path d="M145.399 24.2884H142.415V32.4555H141.174V24.2884H138.184V23.2402H145.399V24.2884Z" fill="white"/>
<path d="M136.812 23.2402V32.4555H136.188C136.089 32.4555 136.006 32.4384 135.937 32.4041C135.873 32.3698 135.809 32.3119 135.744 32.2304L130.413 25.2852C130.422 25.3924 130.428 25.4974 130.432 25.6003C130.437 25.7032 130.439 25.7997 130.439 25.8897V32.4555H129.346V23.2402H129.989C130.045 23.2402 130.092 23.2445 130.13 23.2531C130.169 23.2574 130.203 23.2681 130.233 23.2852C130.263 23.2981 130.293 23.3195 130.323 23.3496C130.353 23.3753 130.385 23.4096 130.42 23.4524L135.751 30.3912C135.742 30.2798 135.734 30.1726 135.725 30.0697C135.721 29.9625 135.719 29.8618 135.719 29.7675V23.2402H136.812Z" fill="white"/>
<path d="M127.608 31.4395L127.601 32.4555H121.923V23.2402H127.601V24.2563H123.17V27.3173H126.759V28.2948H123.17V31.4395H127.608Z" fill="white"/>
<path d="M119.801 30.5524C119.869 30.5524 119.929 30.5802 119.981 30.636L120.476 31.1697C120.099 31.607 119.64 31.9478 119.1 32.1922C118.564 32.4366 117.915 32.5588 117.151 32.5588C116.491 32.5588 115.891 32.4452 115.351 32.2179C114.811 31.9864 114.35 31.6649 113.968 31.2533C113.587 30.8375 113.291 30.3402 113.081 29.7614C112.871 29.1826 112.766 28.546 112.766 27.8514C112.766 27.1569 112.875 26.5203 113.094 25.9415C113.312 25.3627 113.619 24.8654 114.013 24.4496C114.412 24.0337 114.888 23.7122 115.441 23.485C115.994 23.2534 116.605 23.1377 117.274 23.1377C117.93 23.1377 118.508 23.2427 119.01 23.4528C119.511 23.6629 119.953 23.948 120.335 24.3081L119.923 24.8804C119.897 24.9233 119.863 24.9597 119.82 24.9898C119.782 25.0155 119.728 25.0283 119.659 25.0283C119.582 25.0283 119.488 24.9876 119.376 24.9062C119.265 24.8204 119.119 24.7261 118.939 24.6232C118.759 24.5203 118.534 24.4281 118.264 24.3467C117.994 24.2609 117.662 24.2181 117.267 24.2181C116.791 24.2181 116.356 24.3017 115.962 24.4689C115.567 24.6318 115.226 24.8697 114.939 25.1827C114.656 25.4956 114.435 25.8772 114.277 26.3274C114.118 26.7775 114.039 27.2855 114.039 27.8514C114.039 28.4259 114.12 28.9382 114.283 29.3884C114.45 29.8386 114.676 30.2201 114.959 30.5331C115.246 30.8418 115.582 31.0775 115.968 31.2405C116.358 31.4034 116.778 31.4848 117.229 31.4848C117.503 31.4848 117.749 31.4698 117.968 31.4398C118.191 31.4055 118.395 31.3541 118.579 31.2855C118.768 31.2169 118.941 31.1311 119.1 31.0282C119.263 30.9211 119.424 30.7946 119.582 30.6488C119.655 30.5845 119.728 30.5524 119.801 30.5524Z" fill="white"/>
<path d="M107.684 23.2402V32.4555H106.591V25.6839C106.591 25.5939 106.593 25.4974 106.598 25.3945C106.606 25.2916 106.615 25.1866 106.623 25.0794L103.459 30.8414C103.361 31.0343 103.211 31.1308 103.009 31.1308H102.829C102.628 31.1308 102.478 31.0343 102.379 30.8414L99.1508 25.0537C99.1766 25.2809 99.1894 25.491 99.1894 25.6839V32.4555H98.0962V23.2402H99.0158C99.1273 23.2402 99.213 23.251 99.273 23.2724C99.333 23.2938 99.3909 23.3538 99.4467 23.4524L102.63 29.1244C102.681 29.2273 102.731 29.3345 102.778 29.4459C102.829 29.5574 102.876 29.671 102.919 29.7868C102.962 29.671 103.007 29.5574 103.054 29.4459C103.101 29.3302 103.153 29.2208 103.209 29.118L106.334 23.4524C106.385 23.3538 106.441 23.2938 106.501 23.2724C106.566 23.251 106.653 23.2402 106.765 23.2402H107.684Z" fill="white"/>
<path d="M90.8217 27.2788H91.2911C91.4541 27.2788 91.5848 27.2595 91.6834 27.2209C91.782 27.178 91.8721 27.1073 91.9535 27.0087L95.021 23.536C95.1067 23.4246 95.1968 23.3474 95.2911 23.3045C95.3854 23.2617 95.5012 23.2402 95.6383 23.2402H96.693L93.1818 27.208C93.0961 27.3109 93.0125 27.3967 92.931 27.4652C92.8538 27.5296 92.7702 27.5831 92.6802 27.626C92.7959 27.6646 92.901 27.7225 92.9953 27.7996C93.0896 27.8725 93.1818 27.969 93.2718 28.089L96.9374 32.4555H95.857C95.7755 32.4555 95.7048 32.4512 95.6448 32.4427C95.589 32.4298 95.5397 32.4126 95.4969 32.3912C95.454 32.3655 95.4154 32.3376 95.3811 32.3076C95.3511 32.2733 95.3211 32.2347 95.2911 32.1919L92.1143 28.5328C92.0285 28.4256 91.9364 28.3505 91.8378 28.3077C91.7392 28.2605 91.5891 28.2369 91.3876 28.2369H90.8217V32.4555H89.5806V23.2402H90.8217V27.2788Z" fill="white"/>
<path d="M87.224 23.2402V32.4555H86.1308V25.6839C86.1308 25.5939 86.1329 25.4974 86.1372 25.3945C86.1458 25.2916 86.1544 25.1866 86.1629 25.0794L82.999 30.8414C82.9004 31.0343 82.7503 31.1308 82.5488 31.1308H82.3688C82.1673 31.1308 82.0172 31.0343 81.9186 30.8414L78.6904 25.0537C78.7161 25.2809 78.729 25.491 78.729 25.6839V32.4555H77.6357V23.2402H78.5553C78.6668 23.2402 78.7526 23.251 78.8126 23.2724C78.8726 23.2938 78.9305 23.3538 78.9862 23.4524L82.1694 29.1244C82.2209 29.2273 82.2702 29.3345 82.3173 29.4459C82.3688 29.5574 82.4159 29.671 82.4588 29.7868C82.5017 29.671 82.5467 29.5574 82.5939 29.4459C82.641 29.3302 82.6925 29.2208 82.7482 29.118L85.8735 23.4524C85.925 23.3538 85.9807 23.2938 86.0407 23.2724C86.1051 23.251 86.1929 23.2402 86.3044 23.2402H87.224Z" fill="white"/>
<path d="M71.7345 31.4652C72.116 31.4652 72.4569 31.4009 72.757 31.2723C73.0571 31.1436 73.31 30.9636 73.5158 30.7321C73.7259 30.5006 73.8845 30.224 73.9917 29.9025C74.1031 29.581 74.1589 29.2273 74.1589 28.8414V23.2402H75.4V28.8414C75.4 29.373 75.3143 29.8661 75.1428 30.3205C74.9756 30.7749 74.7333 31.1694 74.4161 31.5038C74.1031 31.8339 73.7194 32.0933 73.265 32.2819C72.8105 32.4705 72.3004 32.5648 71.7345 32.5648C71.1686 32.5648 70.6584 32.4705 70.2039 32.2819C69.7495 32.0933 69.3637 31.8339 69.0464 31.5038C68.7292 31.1694 68.4848 30.7749 68.3133 30.3205C68.1461 29.8661 68.0625 29.373 68.0625 28.8414V23.2402H69.3036V28.835C69.3036 29.2208 69.3572 29.5745 69.4644 29.8961C69.5759 30.2176 69.7345 30.4941 69.9403 30.7256C70.1504 30.9571 70.4054 31.1394 70.7055 31.2723C71.0099 31.4009 71.3529 31.4652 71.7345 31.4652Z" fill="white"/>
</svg>
