<svg width="17" height="17" viewBox="0 0 17 17" fill="none" xmlns="http://www.w3.org/2000/svg">
<path fill-rule="evenodd" clip-rule="evenodd" d="M8.0235 0H8.1015C8.77575 0 9.3375 3.35276e-08 9.783 0.06C10.254 0.123 10.6792 0.2625 11.0205 0.60375C11.3625 0.94575 11.502 1.371 11.565 1.84125C11.61 2.17125 11.6213 2.56425 11.6243 3.01875C12.1103 3.0345 12.5437 3.06375 12.9293 3.11475C13.8083 3.23325 14.52 3.48225 15.0817 4.04325C15.6427 4.605 15.8918 5.31675 16.0103 6.19575C16.125 7.05075 16.125 8.142 16.125 9.5205V9.6045C16.125 10.983 16.125 12.075 16.0103 12.9293C15.8918 13.8083 15.6427 14.52 15.0817 15.0817C14.52 15.6427 13.8083 15.8918 12.9293 16.0103C12.0743 16.125 10.983 16.125 9.6045 16.125H6.5205C5.142 16.125 4.05 16.125 3.19575 16.0103C2.31675 15.8918 1.605 15.6427 1.04325 15.0817C0.48225 14.52 0.23325 13.8083 0.11475 12.9293C0 12.0743 0 10.983 0 9.6045V9.5205C0 8.142 0 7.05 0.11475 6.19575C0.23325 5.31675 0.48225 4.605 1.04325 4.04325C1.605 3.48225 2.31675 3.23325 3.19575 3.11475C3.62894 3.06167 4.06445 3.02964 4.50075 3.01875C4.50375 2.56425 4.51575 2.17125 4.56 1.84125C4.623 1.371 4.7625 0.94575 5.10375 0.60375C5.44575 0.2625 5.871 0.12375 6.34125 0.06C6.7875 3.35276e-08 7.35 0 8.0235 0ZM5.6265 3.0015C5.91 3 6.208 2.9995 6.5205 3H9.6045C9.917 3 10.215 3.0005 10.4985 3.0015C10.4955 2.574 10.485 2.2515 10.4505 1.99125C10.4032 1.6455 10.323 1.497 10.2255 1.3995C10.128 1.302 9.9795 1.22175 9.633 1.1745C9.2715 1.1265 8.7855 1.125 8.0625 1.125C7.3395 1.125 6.8535 1.1265 6.49125 1.17525C6.1455 1.22175 5.997 1.302 5.8995 1.40025C5.802 1.4985 5.72175 1.6455 5.6745 1.99125C5.64 2.25075 5.6295 2.57325 5.6265 3.0015ZM3.345 4.23C2.5905 4.33125 2.1555 4.52175 1.8375 4.839C1.521 5.15625 1.3305 5.59125 1.22925 6.34575C1.12575 7.116 1.12425 8.13225 1.12425 9.5625C1.12425 10.9928 1.12575 12.009 1.22925 12.78C1.3305 13.5338 1.521 13.9688 1.83825 14.286C2.1555 14.6033 2.5905 14.7938 3.345 14.895C4.116 14.9985 5.1315 15 6.56175 15H9.56175C10.992 15 12.0082 14.9985 12.7792 14.895C13.533 14.7938 13.968 14.6033 14.2853 14.286C14.6025 13.9688 14.793 13.5337 14.8942 12.7792C14.9977 12.009 14.9993 10.9928 14.9993 9.5625C14.9993 8.13225 14.9977 7.11675 14.8942 6.345C14.793 5.59125 14.6025 5.15625 14.2853 4.839C13.968 4.52175 13.533 4.33125 12.7785 4.23C12.0083 4.1265 10.992 4.125 9.56175 4.125H6.56175C5.1315 4.125 4.11675 4.1265 3.345 4.23ZM8.0625 6C8.21168 6 8.35476 6.05926 8.46025 6.16475C8.56574 6.27024 8.625 6.41332 8.625 6.5625V6.57C9.44175 6.7755 10.125 7.41975 10.125 8.31225C10.125 8.46143 10.0657 8.60451 9.96025 8.71C9.85476 8.81549 9.71168 8.87475 9.5625 8.87475C9.41332 8.87475 9.27024 8.81549 9.16475 8.71C9.05926 8.60451 9 8.46143 9 8.31225C9 8.02425 8.6805 7.62525 8.0625 7.62525C7.4445 7.62525 7.125 8.02425 7.125 8.31225C7.125 8.60025 7.4445 9 8.0625 9C9.10125 9 10.125 9.72 10.125 10.8127C10.125 11.7052 9.44175 12.3488 8.625 12.555V12.5625C8.625 12.7117 8.56574 12.8548 8.46025 12.9602C8.35476 13.0657 8.21168 13.125 8.0625 13.125C7.91332 13.125 7.77024 13.0657 7.66475 12.9602C7.55926 12.8548 7.5 12.7117 7.5 12.5625V12.555C6.68325 12.3495 6 11.7052 6 10.8127C6 10.6636 6.05926 10.5205 6.16475 10.415C6.27024 10.3095 6.41332 10.2502 6.5625 10.2502C6.71168 10.2502 6.85476 10.3095 6.96025 10.415C7.06574 10.5205 7.125 10.6636 7.125 10.8127C7.125 11.1007 7.4445 11.4998 8.0625 11.4998C8.6805 11.4998 9 11.1007 9 10.8127C9 10.5247 8.6805 10.125 8.0625 10.125C7.02375 10.125 6 9.405 6 8.31225C6 7.41975 6.68325 6.7755 7.5 6.57V6.5625C7.5 6.41332 7.55926 6.27024 7.66475 6.16475C7.77024 6.05926 7.91332 6 8.0625 6Z" fill="white"/>
</svg>
