<svg width="14" height="15" viewBox="0 0 14 15" fill="none" xmlns="http://www.w3.org/2000/svg">
<path d="M6.75 0C6.00832 0 5.2833 0.219934 4.66661 0.631989C4.04993 1.04404 3.56928 1.62971 3.28545 2.31494C3.00162 3.00016 2.92736 3.75416 3.07206 4.48159C3.21675 5.20902 3.5739 5.8772 4.09835 6.40165C4.6228 6.9261 5.29098 7.28325 6.01841 7.42795C6.74584 7.57264 7.49984 7.49838 8.18506 7.21455C8.87029 6.93072 9.45596 6.45007 9.86801 5.83339C10.2801 5.2167 10.5 4.49168 10.5 3.75C10.5 2.75544 10.1049 1.80161 9.40165 1.09835C8.69839 0.395088 7.74456 0 6.75 0ZM6.75 6C6.30499 6 5.86998 5.86804 5.49997 5.62081C5.12996 5.37357 4.84157 5.02217 4.67127 4.61104C4.50097 4.1999 4.45642 3.7475 4.54323 3.31105C4.63005 2.87459 4.84434 2.47368 5.15901 2.15901C5.47368 1.84434 5.87459 1.63005 6.31105 1.54323C6.7475 1.45642 7.1999 1.50097 7.61104 1.67127C8.02217 1.84157 8.37357 2.12996 8.62081 2.49997C8.86804 2.86998 9 3.30499 9 3.75C9 4.34674 8.76295 4.91903 8.34099 5.34099C7.91903 5.76295 7.34674 6 6.75 6ZM13.5 14.25V13.5C13.5 12.1076 12.9469 10.7723 11.9623 9.78769C10.9777 8.80312 9.64239 8.25 8.25 8.25H5.25C3.85761 8.25 2.52226 8.80312 1.53769 9.78769C0.553123 10.7723 0 12.1076 0 13.5V14.25H1.5V13.5C1.5 12.5054 1.89509 11.5516 2.59835 10.8483C3.30161 10.1451 4.25544 9.75 5.25 9.75H8.25C9.24456 9.75 10.1984 10.1451 10.9017 10.8483C11.6049 11.5516 12 12.5054 12 13.5V14.25H13.5Z" fill="white"/>
</svg>
